<svg xmlns="http://www.w3.org/2000/svg" xmlns:xlink="http://www.w3.org/1999/xlink" width="35.077mm" height="36.22mm" viewBox="4037.6 3033.1 138.1 142.6"><title></title><style type="text/css">
*[layerid="1"] {stroke:#000000;fill:#000000;}
*[layerid="2"] {stroke:#000000;fill:#000000;}
*[layerid="3"] {stroke:#000000;fill:#000000;}
*[layerid="4"] {stroke:#000000;fill:#000000;}
*[layerid="5"] {stroke:#000000;fill:#000000;}
*[layerid="6"] {stroke:#000000;fill:#000000;}
*[layerid="7"] {stroke:#000000;fill:#000000;}
*[layerid="8"] {stroke:#000000;fill:#000000;}
*[layerid="9"] {stroke:#000000;fill:#000000;}
*[layerid="10"] {stroke:#000000;fill:#000000;}
*[layerid="11"] {stroke:#000000;fill:#000000;}
*[layerid="12"] {stroke:#000000;fill:#000000;}
*[layerid="13"] {stroke:#000000;fill:#000000;}
*[layerid="14"] {stroke:#000000;fill:#000000;}
*[layerid="15"] {stroke:#000000;fill:#000000;}
*[layerid="19"] {stroke:#000000;fill:#000000;}
*[layerid="21"] {stroke:#000000;fill:#000000;}
*[layerid="22"] {stroke:#000000;fill:#000000;}
*[layerid="23"] {stroke:#000000;fill:#000000;}
*[layerid="24"] {stroke:#000000;fill:#000000;}
*[layerid="25"] {stroke:#000000;fill:#000000;}
*[layerid="26"] {stroke:#000000;fill:#000000;}
*[layerid="27"] {stroke:#000000;fill:#000000;}
*[layerid="28"] {stroke:#000000;fill:#000000;}
*[layerid="29"] {stroke:#000000;fill:#000000;}
*[layerid="30"] {stroke:#000000;fill:#000000;}
*[layerid="31"] {stroke:#000000;fill:#000000;}
*[layerid="32"] {stroke:#000000;fill:#000000;}
*[layerid="33"] {stroke:#000000;fill:#000000;}
*[layerid="34"] {stroke:#000000;fill:#000000;}
*[layerid="35"] {stroke:#000000;fill:#000000;}
*[layerid="36"] {stroke:#000000;fill:#000000;}
*[layerid="37"] {stroke:#000000;fill:#000000;}
*[layerid="38"] {stroke:#000000;fill:#000000;}
*[layerid="39"] {stroke:#000000;fill:#000000;}
*[layerid="40"] {stroke:#000000;fill:#000000;}
*[layerid="41"] {stroke:#000000;fill:#000000;}
*[layerid="42"] {stroke:#000000;fill:#000000;}
*[layerid="43"] {stroke:#000000;fill:#000000;}
*[layerid="44"] {stroke:#000000;fill:#000000;}
*[layerid="45"] {stroke:#000000;fill:#000000;}
*[layerid="46"] {stroke:#000000;fill:#000000;}
*[layerid="47"] {stroke:#000000;fill:#000000;}
*[layerid="48"] {stroke:#000000;fill:#000000;}
*[layerid="49"] {stroke:#000000;fill:#000000;}
*[layerid="50"] {stroke:#000000;fill:#000000;}
*[layerid="51"] {stroke:#000000;fill:#000000;}
*[layerid="52"] {stroke:#000000;fill:#000000;}
*[layerid="99"] {stroke:#000000;fill:#000000;}
*[layerid="100"] {stroke:#000000;fill:#000000;}
*[layerid="101"] {stroke:#000000;fill:#000000;}
*[layerid="Hole"] {stroke:#000000;fill:#000000;}
*[layerid="DRCError"] {stroke:#000000;fill:#000000;}
*[fill="none"] {fill: none;}
*[stroke="none"] {stroke: none;}
path, polyline, polygon, line {stroke-linecap:round;}
g[c_partid="part_pad"][layerid="1"] ellipse:not([c_etype="pad_outer"]) {fill:#000000;}
g[c_partid="part_pad"][layerid="1"] polygon:not([c_etype="pad_outer"]) {fill:#000000;}
g[c_partid="part_pad"][layerid="1"] polyline:not([c_etype="pad_outer"]) {stroke:#000000;}
g[c_partid="part_pad"][layerid="2"] ellipse:not([c_etype="pad_outer"]) {fill:#000000;}
g[c_partid="part_pad"][layerid="2"] polygon:not([c_etype="pad_outer"]) {fill:#000000;}
g[c_partid="part_pad"][layerid="2"] polyline:not([c_etype="pad_outer"]) {stroke:#000000;}
g[c_partid="part_pad"][layerid="11"] ellipse:not([c_etype="pad_outer"]) {fill:#000000;}
g[c_partid="part_pad"][layerid="11"] polygon:not([c_etype="pad_outer"]) {fill:#000000;}
g[c_partid="part_pad"][layerid="11"] polyline:not([c_etype="pad_outer"]) {stroke:#000000;}
g[c_partid="part_pad"][layerid="11"] circle {fill:#FFFFFF;}
g[c_partid="part_pad"][layerid="11"] > polyline:nth-of-type(2) {stroke:#FFFFFF;}
g[c_partid="part_pad"][layerid="11"][c_shape="ELLIPSE"]  polyline:nth-last-of-type(1) {stroke:#FFFFFF;}
g[c_partid="part_pad"][layerid="11"][c_shape="RECT"]  polyline:nth-last-of-type(1) {stroke:#FFFFFF;}
g[c_partid="part_pad"][layerid="11"][c_shape="POLYGON"]  polyline:nth-last-of-type(1) {stroke:#FFFFFF;}
g[c_partid="part_via"] > * + circle, #gCurParts g[c_partid="part_via"] > * + circle {fill:#FFFFFF;}
g[c_partid="part_pad"] > polygon[c_etype="pad_outer"], #gCurParts g[c_partid="part_pad"] > polygon[c_etype="pad_outer"] {stroke-linejoin: round;stroke-miterlimit: 100;}
g[c_partid="part_hole"] > circle {fill: #FFFFFF;}path, polyline, polygon {stroke-linejoin:round;}
rect, circle, ellipse, polyline, line, polygon, path {shape-rendering:crispEdges;}
</style>
<rect x="4037.6" y="3033.1" width="138.1" height="142.6" fill="#FFFFFF" stroke="none"/><polyline points="4127.6181 3129.2409 4131.6551 3129.2409" stroke-width="1.378"  stroke-linecap="round" fill="none" layerid="1" net="U4_1" id="gge2955" locked="0" /><polyline points="4131.6551 3129.2409 4133.0381 3130.6239 4134.3391 3130.6239" stroke-width="1.378"  stroke-linecap="round" fill="none" layerid="1" net="U4_1" id="gge2952" locked="0" /><polyline points="4127.6181 3121.7599 4123.5821 3121.7599" stroke-width="1.378"  stroke-linecap="round" fill="none" layerid="1" net="U4_1" id="gge2949" locked="0" /><polyline points="4123.5821 3121.7599 4123.5821 3119.2839 4124.5631 3118.3029 4134.3391 3118.3029" stroke-width="1.378"  stroke-linecap="round" fill="none" layerid="1" net="U4_1" id="gge2946" locked="0" /><polyline points="4075.4131 3142.6679 4085.9661 3153.2209 4088.0631 3153.2209" stroke-width="1.378"  stroke-linecap="round" fill="none" layerid="1" net="U1_7" id="gge2937" locked="0" /><polyline points="4088.0631 3157.9999 4088.0631 3153.2209" stroke-width="1.378"  stroke-linecap="round" fill="none" layerid="1" net="U1_7" id="gge2934" locked="0" /><polyline points="4151.9371 3139.4999 4151.9371 3134.7739" stroke-width="1.378"  stroke-linecap="round" fill="none" layerid="1" net="GND" id="gge2931" locked="0" /><polyline points="4128.4371 3151.9999 4144.1621 3151.9999 4151.9371 3144.2249" stroke-width="1.378"  stroke-linecap="round" fill="none" layerid="1" net="GND" id="gge2928" locked="0" /><polyline points="4151.9371 3139.4999 4151.9371 3144.2249" stroke-width="1.378"  stroke-linecap="round" fill="none" layerid="1" net="GND" id="gge2925" locked="0" /><polyline points="4092.5631 3117.4999 4092.5631 3122.2789" stroke-width="1.378"  stroke-linecap="round" fill="none" layerid="1" net="GND" id="gge2922" locked="0" /><polyline points="4092.5631 3122.2789 4092.5631 3125.5009" stroke-width="1.378"  stroke-linecap="round" fill="none" layerid="1" net="GND" id="gge2919" locked="0" /><polyline points="4092.5631 3125.5009 4127.6181 3125.5009" stroke-width="1.378"  stroke-linecap="round" fill="none" layerid="1" net="GND" id="gge2916" locked="0" /><polyline points="4152.4371 3114.3619 4152.4371 3116.7249" stroke-width="1.378"  stroke-linecap="round" fill="none" layerid="1" net="GND" id="gge2913" locked="0" /><polyline points="4152.4371 3114.3619 4152.4371 3111.9999" stroke-width="1.378"  stroke-linecap="round" fill="none" layerid="1" net="GND" id="gge2910" locked="0" /><polyline points="4152.4371 3111.9999 4152.4371 3091.5829 4149.4271 3088.5729" stroke-width="1.378"  stroke-linecap="round" fill="none" layerid="1" net="GND" id="gge2907" locked="0" /><polyline points="4156.5001 3081.4999 4149.4271 3088.5729" stroke-width="1.378"  stroke-linecap="round" fill="none" layerid="1" net="GND" id="gge2904" locked="0" /><polyline points="4149.4271 3088.5729 4144.3951 3088.5729 4143.8221 3087.9999 4117.1181 3087.9999" stroke-width="1.378"  stroke-linecap="round" fill="none" layerid="1" net="GND" id="gge2901" locked="0" /><polyline points="4152.4371 3116.7249 4143.1631 3125.9989" stroke-width="1.378"  stroke-linecap="round" fill="none" layerid="1" net="GND" id="gge2898" locked="0" /><polyline points="4127.6181 3125.5009 4142.6641 3125.5009 4143.1631 3125.9989" stroke-width="1.378"  stroke-linecap="round" fill="none" layerid="1" net="GND" id="gge2895" locked="0" /><polyline points="4143.1631 3125.9989 4151.9371 3134.7739" stroke-width="1.378"  stroke-linecap="round" fill="none" layerid="1" net="GND" id="gge2892" locked="0" /><polyline points="4092.5631 3125.5009 4072.5801 3125.5009 4065.4131 3132.6679" stroke-width="1.378"  stroke-linecap="round" fill="none" layerid="1" net="GND" id="gge2889" locked="0" /><polyline points="4065.4131 3132.6679 4059.7501 3138.3309 4059.7501 3148.4609 4064.5631 3153.2739" stroke-width="1.378"  stroke-linecap="round" fill="none" layerid="1" net="GND" id="gge2886" locked="0" /><polyline points="4064.5631 3157.9999 4064.5631 3153.2739" stroke-width="1.378"  stroke-linecap="round" fill="none" layerid="1" net="GND" id="gge2883" locked="0" /><polyline points="4117.3811 3129.2409 4113.3451 3129.2409" stroke-width="1.378"  stroke-linecap="round" fill="none" layerid="1" net="U1_5" id="gge2880" locked="0" /><polyline points="4120.5631 3151.9999 4120.5631 3147.2739" stroke-width="1.378"  stroke-linecap="round" fill="none" layerid="1" net="U1_5" id="gge2877" locked="0" /><polyline points="4113.3451 3129.2409 4113.3451 3142.6679" stroke-width="1.378"  stroke-linecap="round" fill="none" layerid="1" net="U1_5" id="gge2874" locked="0" /><polyline points="4095.4131 3142.6679 4113.3451 3142.6679" stroke-width="1.378"  stroke-linecap="round" fill="none" layerid="1" net="U1_5" id="gge2871" locked="0" /><polyline points="4113.3451 3142.6679 4115.9571 3142.6679 4120.5631 3147.2739" stroke-width="1.378"  stroke-linecap="round" fill="none" layerid="1" net="U1_5" id="gge2868" locked="0" /><polyline points="4120.5631 3151.9999 4120.5631 3156.7249" stroke-width="1.378"  stroke-linecap="round" fill="none" layerid="1" net="U1_5" id="gge2865" locked="0" /><polyline points="4072.4371 3157.9999 4072.4371 3162.7249" stroke-width="1.378"  stroke-linecap="round" fill="none" layerid="1" net="U1_5" id="gge2862" locked="0" /><polyline points="4095.9371 3157.9999 4119.2881 3157.9999 4120.5631 3156.7249" stroke-width="1.378"  stroke-linecap="round" fill="none" layerid="1" net="U1_5" id="gge2859" locked="0" /><polyline points="4095.9371 3157.9999 4091.1511 3162.7859 4072.4981 3162.7859 4072.4371 3162.7249" stroke-width="1.378"  stroke-linecap="round" fill="none" layerid="1" net="U1_5" id="gge2856" locked="0" /><polyline points="4121.3511 3084.2599 4121.3511 3055.3089 4125.1071 3051.5529 4132.5481 3051.5529 4137.6631 3056.6679" stroke-width="1.378"  stroke-linecap="round" fill="none" layerid="1" net="U2_3" id="gge2847" locked="0" /><polyline points="4117.1181 3084.2599 4121.3511 3084.2599" stroke-width="1.378"  stroke-linecap="round" fill="none" layerid="1" net="U2_3" id="gge2844" locked="0" /><polyline points="4144.0631 3134.7739 4145.3231 3134.7739 4146.5001 3133.5969" stroke-width="1.378"  stroke-linecap="round" fill="none" layerid="1" net="U2_3" id="gge2838" locked="0" /><polyline points="4144.0631 3139.4999 4144.0631 3134.7739" stroke-width="1.378"  stroke-linecap="round" fill="none" layerid="1" net="U2_3" id="gge2835" locked="0" /><polyline points="4102.6481 3091.7399 4102.6481 3100.3109 4102.2451 3100.7139" stroke-width="1.378"  stroke-linecap="round" fill="none" layerid="1" net="U2_5" id="gge2832" locked="0" /><polyline points="4106.8811 3091.7399 4102.6481 3091.7399" stroke-width="1.378"  stroke-linecap="round" fill="none" layerid="1" net="U2_5" id="gge2829" locked="0" /><polyline points="4100.4371 3117.4999 4100.4371 3102.5219 4102.2451 3100.7139" stroke-width="1.378"  stroke-linecap="round" fill="none" layerid="1" net="U2_5" id="gge2826" locked="0" /><polyline points="4111.1141 3084.2599 4111.1211 3084.2669 4111.1211 3092.7429 4118.8681 3100.4899" stroke-width="1.378"  stroke-linecap="round" fill="none" layerid="1" net="+5V" id="gge2823" locked="0" /><polyline points="4106.8811 3084.2599 4111.1141 3084.2599" stroke-width="1.378"  stroke-linecap="round" fill="none" layerid="1" net="+5V" id="gge2820" locked="0" /><polyline points="4144.5631 3107.2739 4125.6521 3107.2739 4118.8681 3100.4899" stroke-width="1.378"  stroke-linecap="round" fill="none" layerid="1" net="+5V" id="gge2817" locked="0" /><polyline points="4144.5631 3111.9999 4144.5631 3107.2739" stroke-width="1.378"  stroke-linecap="round" fill="none" layerid="1" net="+5V" id="gge2814" locked="0" /><g c_partid="part_pad" c_etype="pinpart" c_origin="4072.437,3158" layerid="1" number="2" net="U1_5" plated ="Y"  id="gge159" locked="0" c_rotation="0" c_width="5.5512" c_height="5.315" title="U1_5" c_shape="RECT" pasteexpansion="-393.7008" solderexpansion="0.2000"><polygon  c_etype="pad_shell" points="4069.6615 3160.6575 4069.6615 3155.3425 4075.2127 3155.3425 4075.2127 3160.6575" layerid="1" stroke-width="0" /><circle c_etype="pad_hole" cx="4072.4371" cy="3158" r="0" layerid="1" stroke-width="0"/></g><g c_partid="part_pad" c_etype="pinpart" c_origin="4064.563,3158" layerid="1" number="1" net="GND" plated ="Y"  id="gge171" locked="0" c_rotation="0" c_width="5.5512" c_height="5.315" title="GND" c_shape="RECT" pasteexpansion="-393.7008" solderexpansion="0.2000"><polygon  c_etype="pad_shell" points="4067.3385 3160.6575 4067.3385 3155.3425 4061.7873 3155.3425 4061.7873 3160.6575" layerid="1" stroke-width="0" /><circle c_etype="pad_hole" cx="4064.5629" cy="3158" r="0" layerid="1" stroke-width="0"/></g><g c_partid="part_pad" c_etype="pinpart" c_origin="4152.437,3112" layerid="1" number="2" net="GND" plated ="Y"  id="gge261" locked="0" c_rotation="0" c_width="5.5512" c_height="5.315" title="GND" c_shape="RECT" pasteexpansion="-393.7008" solderexpansion="0.2000"><polygon  c_etype="pad_shell" points="4149.6615 3114.6575 4149.6615 3109.3425 4155.2127 3109.3425 4155.2127 3114.6575" layerid="1" stroke-width="0" /><circle c_etype="pad_hole" cx="4152.4371" cy="3112" r="0" layerid="1" stroke-width="0"/></g><g c_partid="part_pad" c_etype="pinpart" c_origin="4144.563,3112" layerid="1" number="1" net="+5V" plated ="Y"  id="gge273" locked="0" c_rotation="0" c_width="5.5512" c_height="5.315" title="+5V" c_shape="RECT" pasteexpansion="-393.7008" solderexpansion="0.2000"><polygon  c_etype="pad_shell" points="4147.3385 3114.6575 4147.3385 3109.3425 4141.7873 3109.3425 4141.7873 3114.6575" layerid="1" stroke-width="0" /><circle c_etype="pad_hole" cx="4144.5629" cy="3112" r="0" layerid="1" stroke-width="0"/></g><g c_partid="part_pad" c_etype="pinpart" c_origin="4151.937,3139.5" layerid="1" number="2" net="GND" plated ="Y"  id="gge363" locked="0" c_rotation="0" c_width="5.5512" c_height="5.315" title="GND" c_shape="RECT" pasteexpansion="-393.7008" solderexpansion="0.2000"><polygon  c_etype="pad_shell" points="4149.1615 3142.1575 4149.1615 3136.8425 4154.7127 3136.8425 4154.7127 3142.1575" layerid="1" stroke-width="0" /><circle c_etype="pad_hole" cx="4151.9371" cy="3139.5" r="0" layerid="1" stroke-width="0"/></g><g c_partid="part_pad" c_etype="pinpart" c_origin="4144.063,3139.5" layerid="1" number="1" net="U2_3" plated ="Y"  id="gge375" locked="0" c_rotation="0" c_width="5.5512" c_height="5.315" title="U2_3" c_shape="RECT" pasteexpansion="-393.7008" solderexpansion="0.2000"><polygon  c_etype="pad_shell" points="4146.8385 3142.1575 4146.8385 3136.8425 4141.2873 3136.8425 4141.2873 3142.1575" layerid="1" stroke-width="0" /><circle c_etype="pad_hole" cx="4144.0629" cy="3139.5" r="0" layerid="1" stroke-width="0"/></g><g c_partid="part_pad" c_etype="pinpart" c_origin="4128.437,3152" layerid="1" number="2" net="GND" plated ="Y"  id="gge465" locked="0" c_rotation="0" c_width="5.5512" c_height="5.315" title="GND" c_shape="RECT" pasteexpansion="-393.7008" solderexpansion="0.2000"><polygon  c_etype="pad_shell" points="4125.6615 3154.6575 4125.6615 3149.3425 4131.2127 3149.3425 4131.2127 3154.6575" layerid="1" stroke-width="0" /><circle c_etype="pad_hole" cx="4128.4371" cy="3152" r="0" layerid="1" stroke-width="0"/></g><g c_partid="part_pad" c_etype="pinpart" c_origin="4120.563,3152" layerid="1" number="1" net="U1_5" plated ="Y"  id="gge477" locked="0" c_rotation="0" c_width="5.5512" c_height="5.315" title="U1_5" c_shape="RECT" pasteexpansion="-393.7008" solderexpansion="0.2000"><polygon  c_etype="pad_shell" points="4123.3385 3154.6575 4123.3385 3149.3425 4117.7873 3149.3425 4117.7873 3154.6575" layerid="1" stroke-width="0" /><circle c_etype="pad_hole" cx="4120.5629" cy="3152" r="0" layerid="1" stroke-width="0"/></g><g c_partid="part_pad" c_etype="pinpart" c_origin="4100.437,3117.5" layerid="1" number="2" net="U2_5" plated ="Y"  id="gge534" locked="0" c_rotation="0" c_width="4.4588" c_height="5.4213" title="U2_5" c_shape="RECT" pasteexpansion="-393.7008" solderexpansion="0.2000"><polygon  c_etype="pad_shell" points="4098.2078 3120.2106 4098.2078 3114.7894 4102.6666 3114.7894 4102.6666 3120.2106" layerid="1" stroke-width="0" /><circle c_etype="pad_hole" cx="4100.4372" cy="3117.5" r="0" layerid="1" stroke-width="0"/></g><g c_partid="part_pad" c_etype="pinpart" c_origin="4092.563,3117.5" layerid="1" number="1" net="GND" plated ="Y"  id="gge546" locked="0" c_rotation="0" c_width="4.4588" c_height="5.4213" title="GND" c_shape="RECT" pasteexpansion="-393.7008" solderexpansion="0.2000"><polygon  c_etype="pad_shell" points="4094.7922 3120.2106 4094.7922 3114.7894 4090.3334 3114.7894 4090.3334 3120.2106" layerid="1" stroke-width="0" /><circle c_etype="pad_hole" cx="4092.5628" cy="3117.5" r="0" layerid="1" stroke-width="0"/></g><g c_partid="part_pad" c_etype="pinpart" c_origin="4095.937,3158" layerid="1" number="2" net="U1_5" plated ="Y"  id="gge597" locked="0" c_rotation="0" c_width="4.4588" c_height="5.4213" title="U1_5" c_shape="RECT" pasteexpansion="-393.7008" solderexpansion="0.2000"><polygon  c_etype="pad_shell" points="4093.7078 3160.7106 4093.7078 3155.2894 4098.1666 3155.2894 4098.1666 3160.7106" layerid="1" stroke-width="0" /><circle c_etype="pad_hole" cx="4095.9372" cy="3158" r="0" layerid="1" stroke-width="0"/></g><g c_partid="part_pad" c_etype="pinpart" c_origin="4088.063,3158" layerid="1" number="1" net="U1_7" plated ="Y"  id="gge609" locked="0" c_rotation="0" c_width="4.4588" c_height="5.4213" title="U1_7" c_shape="RECT" pasteexpansion="-393.7008" solderexpansion="0.2000"><polygon  c_etype="pad_shell" points="4090.2922 3160.7106 4090.2922 3155.2894 4085.8334 3155.2894 4085.8334 3160.7106" layerid="1" stroke-width="0" /><circle c_etype="pad_hole" cx="4088.0628" cy="3158" r="0" layerid="1" stroke-width="0"/></g><g c_partid="part_pad" c_etype="pinpart" c_origin="4106.881,3091.74" layerid="1" number="5" net="U2_5" plated ="Y"  id="gge909" locked="0" c_rotation="0" c_width="4.3307" c_height="2.3622" title="U2_5" c_shape="RECT" pasteexpansion="0" solderexpansion="0.2"><polygon  c_etype="pad_shell" points="4104.7161 3090.5589 4109.0468 3090.5589 4109.0468 3092.9211 4104.7161 3092.9211" layerid="1" stroke-width="0" /><circle c_etype="pad_hole" cx="4106.8814" cy="3091.7395" r="0" layerid="1" stroke-width="0"/></g><g c_partid="part_pad" c_etype="pinpart" c_origin="4106.881,3084.26" layerid="1" number="4" net="+5V" plated ="Y"  id="gge924" locked="0" c_rotation="0" c_width="4.3307" c_height="2.3622" title="+5V" c_shape="RECT" pasteexpansion="0" solderexpansion="0.2"><polygon  c_etype="pad_shell" points="4104.7161 3083.0789 4109.0468 3083.0789 4109.0468 3085.4411 4104.7161 3085.4411" layerid="1" stroke-width="0" /><circle c_etype="pad_hole" cx="4106.8818" cy="3084.2595" r="0" layerid="1" stroke-width="0"/></g><g c_partid="part_pad" c_etype="pinpart" c_origin="4117.119,3084.26" layerid="1" number="3" net="U2_3" plated ="Y"  id="gge939" locked="0" c_rotation="0" c_width="4.3307" c_height="2.3622" title="U2_3" c_shape="RECT" pasteexpansion="0" solderexpansion="0.2"><polygon  c_etype="pad_shell" points="4114.9532 3083.0789 4119.2839 3083.0789 4119.2839 3085.4411 4114.9532 3085.4411" layerid="1" stroke-width="0" /><circle c_etype="pad_hole" cx="4117.118" cy="3084.2601" r="0" layerid="1" stroke-width="0"/></g><g c_partid="part_pad" c_etype="pinpart" c_origin="4117.119,3088" layerid="1" number="2" net="GND" plated ="Y"  id="gge954" locked="0" c_rotation="0" c_width="4.3307" c_height="2.3622" title="GND" c_shape="RECT" pasteexpansion="0" solderexpansion="0.2"><polygon  c_etype="pad_shell" points="4114.9532 3086.8189 4119.2839 3086.8189 4119.2839 3089.1811 4114.9532 3089.1811" layerid="1" stroke-width="0" /><circle c_etype="pad_hole" cx="4117.1178" cy="3088.0001" r="0" layerid="1" stroke-width="0"/></g><g c_partid="part_pad" c_etype="pinpart" c_origin="4117.119,3091.74" layerid="1" number="1" net="U2_1" plated ="Y"  id="gge969" locked="0" c_rotation="0" c_width="4.3307" c_height="2.3622" title="U2_1" c_shape="RECT" pasteexpansion="0" solderexpansion="0.2"><polygon  c_etype="pad_shell" points="4114.9532 3090.5589 4119.2839 3090.5589 4119.2839 3092.9211 4114.9532 3092.9211" layerid="1" stroke-width="0" /><circle c_etype="pad_hole" cx="4117.1176" cy="3091.7401" r="0" layerid="1" stroke-width="0"/></g><g c_partid="part_pad" c_etype="pinpart" c_origin="4127.619,3129.24" layerid="1" number="1" net="U4_1" plated ="Y"  id="gge1158" locked="0" c_rotation="0" c_width="3.937" c_height="2.3622" title="U4_1" c_shape="RECT" pasteexpansion="0" solderexpansion="0.2"><polygon  c_etype="pad_shell" points="4125.65 3128.0589 4129.587 3128.0589 4129.587 3130.4211 4125.65 3130.4211" layerid="1" stroke-width="0" /><circle c_etype="pad_hole" cx="4127.6176" cy="3129.2401" r="0" layerid="1" stroke-width="0"/></g><g c_partid="part_pad" c_etype="pinpart" c_origin="4127.619,3125.5" layerid="1" number="2" net="GND" plated ="Y"  id="gge1173" locked="0" c_rotation="0" c_width="3.937" c_height="2.3622" title="GND" c_shape="RECT" pasteexpansion="0" solderexpansion="0.2"><polygon  c_etype="pad_shell" points="4125.65 3124.3189 4129.587 3124.3189 4129.587 3126.6811 4125.65 3126.6811" layerid="1" stroke-width="0" /><circle c_etype="pad_hole" cx="4127.6178" cy="3125.5001" r="0" layerid="1" stroke-width="0"/></g><g c_partid="part_pad" c_etype="pinpart" c_origin="4127.619,3121.76" layerid="1" number="3" net="U4_1" plated ="Y"  id="gge1188" locked="0" c_rotation="0" c_width="3.937" c_height="2.3622" title="U4_1" c_shape="RECT" pasteexpansion="0" solderexpansion="0.2"><polygon  c_etype="pad_shell" points="4125.65 3120.5789 4129.587 3120.5789 4129.587 3122.9411 4125.65 3122.9411" layerid="1" stroke-width="0" /><circle c_etype="pad_hole" cx="4127.618" cy="3121.7601" r="0" layerid="1" stroke-width="0"/></g><g c_partid="part_pad" c_etype="pinpart" c_origin="4117.381,3121.76" layerid="1" number="4" net="U4_4" plated ="Y"  id="gge1203" locked="0" c_rotation="0" c_width="3.937" c_height="2.3622" title="U4_4" c_shape="RECT" pasteexpansion="0" solderexpansion="0.2"><polygon  c_etype="pad_shell" points="4115.413 3120.5789 4119.35 3120.5789 4119.35 3122.9411 4115.413 3122.9411" layerid="1" stroke-width="0" /><circle c_etype="pad_hole" cx="4117.3818" cy="3121.7595" r="0" layerid="1" stroke-width="0"/></g><g c_partid="part_pad" c_etype="pinpart" c_origin="4117.381,3129.24" layerid="1" number="5" net="U1_5" plated ="Y"  id="gge1218" locked="0" c_rotation="0" c_width="3.937" c_height="2.3622" title="U1_5" c_shape="RECT" pasteexpansion="0" solderexpansion="0.2"><polygon  c_etype="pad_shell" points="4115.413 3128.0589 4119.35 3128.0589 4119.35 3130.4211 4115.413 3130.4211" layerid="1" stroke-width="0" /><circle c_etype="pad_hole" cx="4117.3814" cy="3129.2395" r="0" layerid="1" stroke-width="0"/></g><g c_partid="part_pcbtext" c_etype="pinpart" c_origin="4124,3103.5" c_rotation="0" c_mirror="0" id="gge2970" locked="0" layerid="1" c_shapetype="group" ><path c_fontsize="8" c_fontfamily="" c_text="+" d="M 4127.27 3096.52 L 4127.27 3103.06 M 4124 3099.79 L 4130.55 3099.79" fill="none"  stroke-width="0.8"  /></g><g c_partid="part_pcbtext" c_etype="pinpart" c_origin="4090.5,3104.5" c_rotation="0" c_mirror="0" id="gge2991" locked="0" layerid="1" c_shapetype="group" ><path c_fontsize="8" c_fontfamily="" c_text="-" d="M 4090.5 3100.79 L 4097.05 3100.79" fill="none"  stroke-width="0.8"  /></g><g c_partid="part_pad" c_etype="pinpart" c_origin="4118.868,3100.49" layerid="11" number="1" net="+5V" plated ="Y"  id="gge2524" locked="0" c_rotation="0" c_width="6" c_height="6" title="+5V" c_shape="ELLIPSE" pasteexpansion="0" solderexpansion="0.2"><ellipse c_etype="pad_shell" cx="4118.868" cy="3100.49" rx="3" ry="3" layerid="11" stroke-width="0"/><circle c_etype="pad_hole" cx="4118.8677" cy="3100.4895" r="1.8" layerid="11" stroke-width="0"/></g><g c_partid="part_pad" c_etype="pinpart" c_origin="4102.245,3100.714" layerid="11" number="2" net="U2_5" plated ="Y"  id="gge2543" locked="0" c_rotation="0" c_width="6" c_height="6" title="U2_5" c_shape="ELLIPSE" pasteexpansion="0" solderexpansion="0.2"><ellipse c_etype="pad_shell" cx="4102.245" cy="3100.714" rx="3" ry="3" layerid="11" stroke-width="0"/><circle c_etype="pad_hole" cx="4102.2451" cy="3100.7143" r="1.8" layerid="11" stroke-width="0"/></g><g c_partid="part_pad" c_etype="pinpart" c_origin="4146.5,3081.5" layerid="11" number="1" net="U2_3" plated ="Y"  id="gge57" locked="0" c_rotation="0" c_width="6" c_height="10" title="U2_3" c_shape="OVAL" pasteexpansion="0" solderexpansion="0.19685"><polyline  c_etype="pad_shell" points="4146.5 3079.5 4146.5 3083.5" layerid="11" stroke-width="6" /><circle c_etype="pad_hole" cx="4146.5" cy="3081.5" r="1.8" layerid="11" stroke-width="0"/></g><g c_partid="part_pad" c_etype="pinpart" c_origin="4156.5,3081.5" layerid="11" number="2" net="GND" plated ="Y"  id="gge72" locked="0" c_rotation="0" c_width="6" c_height="10" title="GND" c_shape="OVAL" pasteexpansion="0" solderexpansion="0.19685"><polyline  c_etype="pad_shell" points="4156.5 3079.5 4156.5 3083.5" layerid="11" stroke-width="6" /><circle c_etype="pad_hole" cx="4156.5" cy="3081.5" r="1.8" layerid="11" stroke-width="0"/></g><g c_partid="part_pad" c_etype="pinpart" c_origin="4065.413,3132.668" layerid="11" number="1" net="GND" plated ="Y"  id="gge696" locked="0" c_rotation="0" c_width="7.0866" c_height="7.0866" title="GND" c_shape="RECT" pasteexpansion="0" solderexpansion="0.2"><polygon  c_etype="pad_shell" points="4061.8697 3129.1242 4068.9563 3129.1242 4068.9563 3136.2108 4061.8697 3136.2108" layerid="11" stroke-width="0" /><circle c_etype="pad_hole" cx="4065.413" cy="3132.6675" r="2.362" layerid="11" stroke-width="0"/></g><g c_partid="part_pad" c_etype="pinpart" c_origin="4075.413,3132.668" layerid="11" number="2" net="U1_2" plated ="Y"  id="gge711" locked="0" c_rotation="0" c_width="7.0866" c_height="7.0866" title="U1_2" c_shape="ELLIPSE" pasteexpansion="0" solderexpansion="0.2"><ellipse c_etype="pad_shell" cx="4075.413" cy="3132.668" rx="3.5433" ry="3.5433" layerid="11" stroke-width="0"/><circle c_etype="pad_hole" cx="4075.413" cy="3132.6675" r="2.362" layerid="11" stroke-width="0"/></g><g c_partid="part_pad" c_etype="pinpart" c_origin="4085.413,3132.668" layerid="11" number="3" net="U1_3" plated ="Y"  id="gge726" locked="0" c_rotation="0" c_width="7.0866" c_height="7.0866" title="U1_3" c_shape="ELLIPSE" pasteexpansion="0" solderexpansion="0.2"><ellipse c_etype="pad_shell" cx="4085.413" cy="3132.668" rx="3.5433" ry="3.5433" layerid="11" stroke-width="0"/><circle c_etype="pad_hole" cx="4085.413" cy="3132.6675" r="2.362" layerid="11" stroke-width="0"/></g><g c_partid="part_pad" c_etype="pinpart" c_origin="4095.413,3132.668" layerid="11" number="4" net="U1_4" plated ="Y"  id="gge741" locked="0" c_rotation="0" c_width="7.0866" c_height="7.0866" title="U1_4" c_shape="ELLIPSE" pasteexpansion="0" solderexpansion="0.2"><ellipse c_etype="pad_shell" cx="4095.413" cy="3132.668" rx="3.5433" ry="3.5433" layerid="11" stroke-width="0"/><circle c_etype="pad_hole" cx="4095.413" cy="3132.6675" r="2.362" layerid="11" stroke-width="0"/></g><g c_partid="part_pad" c_etype="pinpart" c_origin="4095.413,3142.668" layerid="11" number="5" net="U1_5" plated ="Y"  id="gge756" locked="0" c_rotation="0" c_width="7.0866" c_height="7.0866" title="U1_5" c_shape="ELLIPSE" pasteexpansion="0" solderexpansion="0.2"><ellipse c_etype="pad_shell" cx="4095.413" cy="3142.668" rx="3.5433" ry="3.5433" layerid="11" stroke-width="0"/><circle c_etype="pad_hole" cx="4095.413" cy="3142.6675" r="2.362" layerid="11" stroke-width="0"/></g><g c_partid="part_pad" c_etype="pinpart" c_origin="4085.413,3142.668" layerid="11" number="6" net="U1_6" plated ="Y"  id="gge771" locked="0" c_rotation="0" c_width="7.0866" c_height="7.0866" title="U1_6" c_shape="ELLIPSE" pasteexpansion="0" solderexpansion="0.2"><ellipse c_etype="pad_shell" cx="4085.413" cy="3142.668" rx="3.5433" ry="3.5433" layerid="11" stroke-width="0"/><circle c_etype="pad_hole" cx="4085.413" cy="3142.6675" r="2.362" layerid="11" stroke-width="0"/></g><g c_partid="part_pad" c_etype="pinpart" c_origin="4075.413,3142.668" layerid="11" number="7" net="U1_7" plated ="Y"  id="gge786" locked="0" c_rotation="0" c_width="7.0866" c_height="7.0866" title="U1_7" c_shape="ELLIPSE" pasteexpansion="0" solderexpansion="0.2"><ellipse c_etype="pad_shell" cx="4075.413" cy="3142.668" rx="3.5433" ry="3.5433" layerid="11" stroke-width="0"/><circle c_etype="pad_hole" cx="4075.413" cy="3142.6675" r="2.362" layerid="11" stroke-width="0"/></g><g c_partid="part_pad" c_etype="pinpart" c_origin="4065.413,3142.668" layerid="11" number="8" net="U1_8" plated ="Y"  id="gge801" locked="0" c_rotation="0" c_width="7.0866" c_height="7.0866" title="U1_8" c_shape="ELLIPSE" pasteexpansion="0" solderexpansion="0.2"><ellipse c_etype="pad_shell" cx="4065.413" cy="3142.668" rx="3.5433" ry="3.5433" layerid="11" stroke-width="0"/><circle c_etype="pad_hole" cx="4065.413" cy="3142.6675" r="2.362" layerid="11" stroke-width="0"/></g><g c_partid="part_pad" c_etype="pinpart" c_origin="4127.82,3056.668" layerid="11" number="1" net="U4_1" plated ="Y"  id="gge1038" locked="0" c_rotation="0" c_width="6" c_height="6" title="U4_1" c_shape="ELLIPSE" pasteexpansion="0" solderexpansion="0.1969"><ellipse c_etype="pad_shell" cx="4127.82" cy="3056.668" rx="3" ry="3" layerid="11" stroke-width="0"/><circle c_etype="pad_hole" cx="4127.82" cy="3056.6675" r="1.8" layerid="11" stroke-width="0"/></g><g c_partid="part_pad" c_etype="pinpart" c_origin="4137.663,3056.668" layerid="11" number="2" net="U2_3" plated ="Y"  id="gge1053" locked="0" c_rotation="0" c_width="6" c_height="6" title="U2_3" c_shape="ELLIPSE" pasteexpansion="0" solderexpansion="0.1969"><ellipse c_etype="pad_shell" cx="4137.663" cy="3056.668" rx="3" ry="3" layerid="11" stroke-width="0"/><circle c_etype="pad_hole" cx="4137.6625" cy="3056.6675" r="1.8" layerid="11" stroke-width="0"/></g><g c_partid="part_pad" c_etype="pinpart" c_origin="4147.505,3056.668" layerid="11" number="3" net="U3_3" plated ="Y"  id="gge1068" locked="0" c_rotation="0" c_width="6" c_height="6" title="U3_3" c_shape="ELLIPSE" pasteexpansion="0" solderexpansion="0.1969"><ellipse c_etype="pad_shell" cx="4147.505" cy="3056.668" rx="3" ry="3" layerid="11" stroke-width="0"/><circle c_etype="pad_hole" cx="4147.505" cy="3056.6675" r="1.8" layerid="11" stroke-width="0"/></g><g c_partid="part_via" c_etype="pinpart" c_shapetype="group" net="U2_3" c_origin="4146.5,3133.597" layerid="11" id="gge2853" locked="0" solderexpansion=""><circle cx="4146.5" cy="3133.597" r="0.7874" stroke-width="0" c_etype="pad_shell"/><circle cx="4146.5" cy="3133.597" r="0.689"  stroke-width="0" c_etype="pad_hole"/></g><g c_partid="part_via" c_etype="pinpart" c_shapetype="group" net="U4_1" c_origin="4134.339,3130.624" layerid="11" id="gge2958" locked="0" solderexpansion=""><circle cx="4134.339" cy="3130.624" r="0.7874" stroke-width="0" c_etype="pad_shell"/><circle cx="4134.339" cy="3130.624" r="0.689"  stroke-width="0" c_etype="pad_hole"/></g><g c_partid="part_via" c_etype="pinpart" c_shapetype="group" net="U4_1" c_origin="4134.339,3118.303" layerid="11" id="gge2961" locked="0" solderexpansion=""><circle cx="4134.339" cy="3118.303" r="0.7874" stroke-width="0" c_etype="pad_shell"/><circle cx="4134.339" cy="3118.303" r="0.689"  stroke-width="0" c_etype="pad_hole"/></g><polyline points="4142.5 3075 4160.5 3075 4160.5 3088 4142.5 3088 4142.5 3075" stroke-width="1"  stroke-linecap="round" fill="none" layerid="3" net="" id="gge39" locked="0" /><polyline points="4075.6307 3154.4425 4070.0795 3154.4425" stroke-width="1"  stroke-linecap="round" fill="none" layerid="3" net="" id="gge123" locked="0" /><polyline points="4070.0795 3161.5575 4075.6307 3161.5575" stroke-width="1"  stroke-linecap="round" fill="none" layerid="3" net="" id="gge126" locked="0" /><polyline points="4076.2307 3160.9575 4076.2307 3155.0425" stroke-width="1"  stroke-linecap="round" fill="none" layerid="3" net="" id="gge129" locked="0" /><polyline points="4061.3693 3154.4425 4066.9205 3154.4425" stroke-width="1"  stroke-linecap="round" fill="none" layerid="3" net="" id="gge132" locked="0" /><polyline points="4066.9205 3161.5575 4061.3693 3161.5575" stroke-width="1"  stroke-linecap="round" fill="none" layerid="3" net="" id="gge135" locked="0" /><polyline points="4060.7693 3160.9575 4060.7693 3155.0425" stroke-width="1"  stroke-linecap="round" fill="none" layerid="3" net="" id="gge138" locked="0" /><polyline points="4156.2307 3114.9575 4156.2307 3109.0425" stroke-width="1"  stroke-linecap="round" fill="none" layerid="3" net="" id="gge225" locked="0" /><polyline points="4155.6307 3108.4425 4150.0795 3108.4425" stroke-width="1"  stroke-linecap="round" fill="none" layerid="3" net="" id="gge228" locked="0" /><polyline points="4150.0795 3115.5575 4155.6307 3115.5575" stroke-width="1"  stroke-linecap="round" fill="none" layerid="3" net="" id="gge231" locked="0" /><polyline points="4141.3693 3108.4425 4146.9205 3108.4425" stroke-width="1"  stroke-linecap="round" fill="none" layerid="3" net="" id="gge234" locked="0" /><polyline points="4146.9205 3115.5575 4141.3693 3115.5575" stroke-width="1"  stroke-linecap="round" fill="none" layerid="3" net="" id="gge237" locked="0" /><polyline points="4140.7693 3114.9575 4140.7693 3109.0425" stroke-width="1"  stroke-linecap="round" fill="none" layerid="3" net="" id="gge240" locked="0" /><polyline points="4155.7307 3142.4575 4155.7307 3136.5425" stroke-width="1"  stroke-linecap="round" fill="none" layerid="3" net="" id="gge327" locked="0" /><polyline points="4155.1307 3135.9425 4149.5795 3135.9425" stroke-width="1"  stroke-linecap="round" fill="none" layerid="3" net="" id="gge330" locked="0" /><polyline points="4149.5795 3143.0575 4155.1307 3143.0575" stroke-width="1"  stroke-linecap="round" fill="none" layerid="3" net="" id="gge333" locked="0" /><polyline points="4140.8693 3135.9425 4146.4205 3135.9425" stroke-width="1"  stroke-linecap="round" fill="none" layerid="3" net="" id="gge336" locked="0" /><polyline points="4146.4205 3143.0575 4140.8693 3143.0575" stroke-width="1"  stroke-linecap="round" fill="none" layerid="3" net="" id="gge339" locked="0" /><polyline points="4140.2693 3142.4575 4140.2693 3136.5425" stroke-width="1"  stroke-linecap="round" fill="none" layerid="3" net="" id="gge342" locked="0" /><polyline points="4132.2307 3154.9575 4132.2307 3149.0425" stroke-width="1"  stroke-linecap="round" fill="none" layerid="3" net="" id="gge429" locked="0" /><polyline points="4131.6307 3148.4425 4126.0795 3148.4425" stroke-width="1"  stroke-linecap="round" fill="none" layerid="3" net="" id="gge432" locked="0" /><polyline points="4126.0795 3155.5575 4131.6307 3155.5575" stroke-width="1"  stroke-linecap="round" fill="none" layerid="3" net="" id="gge435" locked="0" /><polyline points="4117.3693 3148.4425 4122.9205 3148.4425" stroke-width="1"  stroke-linecap="round" fill="none" layerid="3" net="" id="gge438" locked="0" /><polyline points="4122.9205 3155.5575 4117.3693 3155.5575" stroke-width="1"  stroke-linecap="round" fill="none" layerid="3" net="" id="gge441" locked="0" /><polyline points="4116.7693 3154.9575 4116.7693 3149.0425" stroke-width="1"  stroke-linecap="round" fill="none" layerid="3" net="" id="gge444" locked="0" /><polyline points="4098.3748 3121.1106 4103.4336 3121.1106 4103.4336 3113.8894 4098.3748 3113.8894" stroke-width="0.6"  stroke-linecap="round" fill="none" layerid="3" net="" id="gge519" locked="0" /><polyline points="4094.6252 3121.1106 4089.5664 3121.1106 4089.5664 3113.8894 4094.6252 3113.8894" stroke-width="0.6"  stroke-linecap="round" fill="none" layerid="3" net="" id="gge522" locked="0" /><polyline points="4093.8748 3161.6106 4098.9336 3161.6106 4098.9336 3154.3894 4093.8748 3154.3894" stroke-width="0.6"  stroke-linecap="round" fill="none" layerid="3" net="" id="gge582" locked="0" /><polyline points="4090.1252 3161.6106 4085.0664 3161.6106 4085.0664 3154.3894 4090.1252 3154.3894" stroke-width="0.6"  stroke-linecap="round" fill="none" layerid="3" net="" id="gge585" locked="0" /><polyline points="4110.413 3147.6675 4110.413 3052.6675 4110.413 3049.4675 4050.413 3049.4675 4050.413 3147.6675" stroke-width="1"  stroke-linecap="round" fill="none" layerid="3" net="" id="gge645" locked="0" /><polyline points="4050.413 3147.6675 4110.413 3147.6675" stroke-width="1"  stroke-linecap="round" fill="none" layerid="3" net="" id="gge648" locked="0" /><polyline points="4060.413 3082.6675 4060.413 3057.6675 4065.413 3057.6675 4065.413 3067.6675 4070.413 3067.6675 4070.413 3057.6675 4075.413 3057.6675 4075.413 3067.6675 4080.413 3067.6675 4080.413 3057.6675 4095.413 3057.6675" stroke-width="1"  stroke-linecap="round" fill="none" layerid="3" net="" id="gge651" locked="0" /><polyline points="4055.413 3087.6675 4105.413 3087.6675 4105.413 3122.6675 4055.413 3122.6675 4055.413 3087.6675" stroke-width="1"  stroke-linecap="round" fill="none" layerid="3" net="" id="gge654" locked="0" /><polyline points="4115.5432 3093.528 4115.5432 3094.1026" stroke-width="0.3937"  stroke-linecap="round" fill="none" layerid="3" net="" id="gge873" locked="0" /><polyline points="4115.5432 3089.7879 4115.5432 3089.952" stroke-width="0.3937"  stroke-linecap="round" fill="none" layerid="3" net="" id="gge876" locked="0" /><polyline points="4115.5432 3086.048 4115.5432 3086.212" stroke-width="0.3937"  stroke-linecap="round" fill="none" layerid="3" net="" id="gge879" locked="0" /><polyline points="4115.5432 3081.8978 4115.5432 3082.472" stroke-width="0.3937"  stroke-linecap="round" fill="none" layerid="3" net="" id="gge882" locked="0" /><polyline points="4108.4565 3093.528 4108.4565 3094.1026" stroke-width="0.3937"  stroke-linecap="round" fill="none" layerid="3" net="" id="gge885" locked="0" /><polyline points="4108.4565 3086.048 4108.4565 3089.9521" stroke-width="0.3937"  stroke-linecap="round" fill="none" layerid="3" net="" id="gge888" locked="0" /><polyline points="4108.4565 3081.8978 4108.4565 3082.4721" stroke-width="0.3937"  stroke-linecap="round" fill="none" layerid="3" net="" id="gge891" locked="0" /><polyline points="4108.4565 3081.8978 4115.5432 3081.8978" stroke-width="0.3937"  stroke-linecap="round" fill="none" layerid="3" net="" id="gge894" locked="0" /><polyline points="4108.4565 3094.1026 4115.5432 3094.1026" stroke-width="0.3937"  stroke-linecap="round" fill="none" layerid="3" net="" id="gge897" locked="0" /><polyline points="4131.6625 3057.3447 4131.6625 3061.1675 4132.6625 3061.1675" stroke-width="1"  stroke-linecap="round" fill="none" layerid="3" net="" id="gge1014" locked="0" /><polyline points="4133.0031 3052.1675 4131.6625 3052.1675 4131.6625 3055.9903" stroke-width="1"  stroke-linecap="round" fill="none" layerid="3" net="" id="gge1017" locked="0" /><polyline points="4143.1625 3052.1675 4132.6625 3052.1675 4132.6625 3061.1675 4143.1625 3061.1675 4143.1625 3052.1675" stroke-width="1"  stroke-linecap="round" fill="none" layerid="3" net="" id="gge1020" locked="0" /><polyline points="4119.913 3048.6675 4155.413 3048.6675 4155.413 3064.6675 4119.913 3064.6675 4119.913 3048.6675" stroke-width="1"  stroke-linecap="round" fill="none" layerid="3" net="" id="gge1023" locked="0" /><polyline points="4118.9565 3131.6026 4126.0432 3131.6026" stroke-width="1"  stroke-linecap="round" fill="none" layerid="3" net="" id="gge1137" locked="0" /><polyline points="4118.9565 3127.0751 4118.9565 3123.9254" stroke-width="1"  stroke-linecap="round" fill="none" layerid="3" net="" id="gge1140" locked="0" /><polyline points="4118.9565 3119.3978 4126.0432 3119.3978" stroke-width="1"  stroke-linecap="round" fill="none" layerid="3" net="" id="gge1143" locked="0" /><g c_partid="part_pcbtext" c_etype="" c_origin="4151.5,3060.5" c_rotation="0" c_mirror="0" id="gge9" locked="0" layerid="3" c_shapetype="group" display="none"><path c_fontsize="4.5" c_fontfamily="" c_text="3.7V" d="M 4151.91 3055.96 L 4154.16 3055.96 L 4152.93 3057.6 L 4153.55 3057.6 L 4153.95 3057.8 L 4154.16 3058 L 4154.36 3058.62 L 4154.36 3059.03 L 4154.16 3059.64 L 4153.75 3060.05 L 4153.14 3060.25 L 4152.52 3060.25 L 4151.91 3060.05 L 4151.7 3059.85 L 4151.5 3059.44 M 4155.92 3059.23 L 4155.71 3059.44 L 4155.92 3059.64 L 4156.12 3059.44 L 4155.92 3059.23 M 4160.34 3055.96 L 4158.29 3060.25 M 4157.47 3055.96 L 4160.34 3055.96 M 4161.69 3055.96 L 4163.32 3060.25 M 4164.96 3055.96 L 4163.32 3060.25" fill="none"  stroke-width="0.6" c_note="note_name" /></g><g c_partid="part_pcbtext" c_etype="" c_origin="4151.5,3067.5" c_rotation="0" c_mirror="0" id="gge15" locked="0" layerid="3" c_shapetype="group" ><path c_fontsize="4.5" c_fontfamily="" c_text="BT1" d="M 4151.5 3062.96 L 4151.5 3067.25 M 4151.5 3062.96 L 4153.34 3062.96 L 4153.95 3063.16 L 4154.16 3063.37 L 4154.36 3063.78 L 4154.36 3064.19 L 4154.16 3064.6 L 4153.95 3064.8 L 4153.34 3065 M 4151.5 3065 L 4153.34 3065 L 4153.95 3065.21 L 4154.16 3065.41 L 4154.36 3065.82 L 4154.36 3066.44 L 4154.16 3066.85 L 4153.95 3067.05 L 4153.34 3067.25 L 4151.5 3067.25 M 4157.15 3062.96 L 4157.15 3067.25 M 4155.71 3062.96 L 4158.58 3062.96 M 4159.93 3063.78 L 4160.34 3063.57 L 4160.95 3062.96 L 4160.95 3067.25" fill="none"  stroke-width="0.6" c_note="note_pre" /></g><g c_partid="part_pcbtext" c_etype="pinpart" c_origin="4144.5,3073.5" c_rotation="0" c_mirror="0" id="gge45" locked="0" layerid="3" c_shapetype="group" ><path c_fontsize="3.937" c_fontfamily="" c_text="+" d="M 4146.11 3070.06 L 4146.11 3073.29 M 4144.5 3071.67 L 4147.72 3071.67" fill="none"  stroke-width="1"  /></g><g c_partid="part_pcbtext" c_etype="pinpart" c_origin="4154.5,3073.5" c_rotation="0" c_mirror="0" id="gge51" locked="0" layerid="3" c_shapetype="group" ><path c_fontsize="3.937" c_fontfamily="" c_text="-" d="M 4154.5 3071.67 L 4157.72 3071.67" fill="none"  stroke-width="1"  /></g><g c_partid="part_pcbtext" c_etype="" c_origin="4068.5,3140" c_rotation="0" c_mirror="0" id="gge93" locked="0" layerid="3" c_shapetype="group" display="none"><path c_fontsize="4.5" c_fontfamily="" c_text="100uF" d="M 4068.5 3136.28 L 4068.91 3136.07 L 4069.52 3135.46 L 4069.52 3139.75 M 4072.1 3135.46 L 4071.49 3135.66 L 4071.08 3136.28 L 4070.87 3137.3 L 4070.87 3137.91 L 4071.08 3138.94 L 4071.49 3139.55 L 4072.1 3139.75 L 4072.51 3139.75 L 4073.12 3139.55 L 4073.53 3138.94 L 4073.74 3137.91 L 4073.74 3137.3 L 4073.53 3136.28 L 4073.12 3135.66 L 4072.51 3135.46 L 4072.1 3135.46 M 4076.31 3135.46 L 4075.7 3135.66 L 4075.29 3136.28 L 4075.09 3137.3 L 4075.09 3137.91 L 4075.29 3138.94 L 4075.7 3139.55 L 4076.31 3139.75 L 4076.72 3139.75 L 4077.34 3139.55 L 4077.75 3138.94 L 4077.95 3137.91 L 4077.95 3137.3 L 4077.75 3136.28 L 4077.34 3135.66 L 4076.72 3135.46 L 4076.31 3135.46 M 4079.3 3136.89 L 4079.3 3138.94 L 4079.5 3139.55 L 4079.91 3139.75 L 4080.53 3139.75 L 4080.94 3139.55 L 4081.55 3138.94 M 4081.55 3136.89 L 4081.55 3139.75 M 4082.9 3135.46 L 4082.9 3139.75 M 4082.9 3135.46 L 4085.56 3135.46 M 4082.9 3137.5 L 4084.54 3137.5" fill="none"  stroke-width="0.6" c_note="note_name" /></g><g c_partid="part_pcbtext" c_etype="" c_origin="4068.5,3147" c_rotation="0" c_mirror="0" id="gge99" locked="0" layerid="3" c_shapetype="group" ><path c_fontsize="4.5" c_fontfamily="" c_text="C1" d="M 4071.57 3143.48 L 4071.36 3143.07 L 4070.95 3142.66 L 4070.55 3142.46 L 4069.73 3142.46 L 4069.32 3142.66 L 4068.91 3143.07 L 4068.7 3143.48 L 4068.5 3144.1 L 4068.5 3145.12 L 4068.7 3145.73 L 4068.91 3146.14 L 4069.32 3146.55 L 4069.73 3146.75 L 4070.55 3146.75 L 4070.95 3146.55 L 4071.36 3146.14 L 4071.57 3145.73 M 4072.92 3143.28 L 4073.33 3143.07 L 4073.94 3142.46 L 4073.94 3146.75" fill="none"  stroke-width="0.6" c_note="note_pre" /></g><g c_partid="part_pcbtext" c_etype="pinpart" c_origin="4061.5,3152" c_rotation="0" c_mirror="0" id="gge183" locked="0" layerid="3" c_shapetype="group" ><path c_fontsize="3.937" c_fontfamily="" c_text="100uF" d="M 4061.5 3148.74 L 4061.86 3148.56 L 4062.39 3148.03 L 4062.39 3151.79 M 4064.65 3148.03 L 4064.11 3148.21 L 4063.75 3148.74 L 4063.58 3149.64 L 4063.58 3150.17 L 4063.75 3151.07 L 4064.11 3151.61 L 4064.65 3151.79 L 4065.01 3151.79 L 4065.54 3151.61 L 4065.9 3151.07 L 4066.08 3150.17 L 4066.08 3149.64 L 4065.9 3148.74 L 4065.54 3148.21 L 4065.01 3148.03 L 4064.65 3148.03 M 4068.34 3148.03 L 4067.8 3148.21 L 4067.44 3148.74 L 4067.26 3149.64 L 4067.26 3150.17 L 4067.44 3151.07 L 4067.8 3151.61 L 4068.34 3151.79 L 4068.69 3151.79 L 4069.23 3151.61 L 4069.59 3151.07 L 4069.77 3150.17 L 4069.77 3149.64 L 4069.59 3148.74 L 4069.23 3148.21 L 4068.69 3148.03 L 4068.34 3148.03 M 4070.95 3149.28 L 4070.95 3151.07 L 4071.13 3151.61 L 4071.49 3151.79 L 4072.02 3151.79 L 4072.38 3151.61 L 4072.92 3151.07 M 4072.92 3149.28 L 4072.92 3151.79 M 4074.1 3148.03 L 4074.1 3151.79 M 4074.1 3148.03 L 4076.42 3148.03 M 4074.1 3149.82 L 4075.53 3149.82" fill="none"  stroke-width="1"  /></g><g c_partid="part_pcbtext" c_etype="" c_origin="4148.5,3094" c_rotation="0" c_mirror="0" id="gge195" locked="0" layerid="3" c_shapetype="group" display="none"><path c_fontsize="4.5" c_fontfamily="" c_text="10uF" d="M 4148.5 3090.28 L 4148.91 3090.07 L 4149.52 3089.46 L 4149.52 3093.75 M 4152.1 3089.46 L 4151.49 3089.66 L 4151.08 3090.28 L 4150.87 3091.3 L 4150.87 3091.91 L 4151.08 3092.94 L 4151.49 3093.55 L 4152.1 3093.75 L 4152.51 3093.75 L 4153.12 3093.55 L 4153.53 3092.94 L 4153.74 3091.91 L 4153.74 3091.3 L 4153.53 3090.28 L 4153.12 3089.66 L 4152.51 3089.46 L 4152.1 3089.46 M 4155.09 3090.89 L 4155.09 3092.94 L 4155.29 3093.55 L 4155.7 3093.75 L 4156.31 3093.75 L 4156.72 3093.55 L 4157.34 3092.94 M 4157.34 3090.89 L 4157.34 3093.75 M 4158.69 3089.46 L 4158.69 3093.75 M 4158.69 3089.46 L 4161.35 3089.46 M 4158.69 3091.5 L 4160.32 3091.5" fill="none"  stroke-width="0.6" c_note="note_name" /></g><g c_partid="part_pcbtext" c_etype="" c_origin="4148.5,3101" c_rotation="0" c_mirror="0" id="gge201" locked="0" layerid="3" c_shapetype="group" ><path c_fontsize="4.5" c_fontfamily="" c_text="C2" d="M 4151.57 3097.48 L 4151.36 3097.07 L 4150.95 3096.66 L 4150.55 3096.46 L 4149.73 3096.46 L 4149.32 3096.66 L 4148.91 3097.07 L 4148.7 3097.48 L 4148.5 3098.1 L 4148.5 3099.12 L 4148.7 3099.73 L 4148.91 3100.14 L 4149.32 3100.55 L 4149.73 3100.75 L 4150.55 3100.75 L 4150.95 3100.55 L 4151.36 3100.14 L 4151.57 3099.73 M 4153.12 3097.48 L 4153.12 3097.28 L 4153.33 3096.87 L 4153.53 3096.66 L 4153.94 3096.46 L 4154.76 3096.46 L 4155.17 3096.66 L 4155.37 3096.87 L 4155.58 3097.28 L 4155.58 3097.69 L 4155.37 3098.1 L 4154.96 3098.71 L 4152.92 3100.75 L 4155.78 3100.75" fill="none"  stroke-width="0.6" c_note="note_pre" /></g><g c_partid="part_pcbtext" c_etype="pinpart" c_origin="4143,3106" c_rotation="0" c_mirror="0" id="gge285" locked="0" layerid="3" c_shapetype="group" ><path c_fontsize="3.937" c_fontfamily="" c_text="10uF" d="M 4143 3102.74 L 4143.36 3102.56 L 4143.89 3102.03 L 4143.89 3105.79 M 4146.15 3102.03 L 4145.61 3102.21 L 4145.25 3102.74 L 4145.08 3103.64 L 4145.08 3104.17 L 4145.25 3105.07 L 4145.61 3105.61 L 4146.15 3105.79 L 4146.51 3105.79 L 4147.04 3105.61 L 4147.4 3105.07 L 4147.58 3104.17 L 4147.58 3103.64 L 4147.4 3102.74 L 4147.04 3102.21 L 4146.51 3102.03 L 4146.15 3102.03 M 4148.76 3103.28 L 4148.76 3105.07 L 4148.94 3105.61 L 4149.3 3105.79 L 4149.84 3105.79 L 4150.19 3105.61 L 4150.73 3105.07 M 4150.73 3103.28 L 4150.73 3105.79 M 4151.91 3102.03 L 4151.91 3105.79 M 4151.91 3102.03 L 4154.24 3102.03 M 4151.91 3103.82 L 4153.34 3103.82" fill="none"  stroke-width="1"  /></g><g c_partid="part_pcbtext" c_etype="" c_origin="4148,3121.5" c_rotation="0" c_mirror="0" id="gge297" locked="0" layerid="3" c_shapetype="group" display="none"><path c_fontsize="4.5" c_fontfamily="" c_text="10uF" d="M 4148 3117.78 L 4148.41 3117.57 L 4149.02 3116.96 L 4149.02 3121.25 M 4151.6 3116.96 L 4150.99 3117.16 L 4150.58 3117.78 L 4150.37 3118.8 L 4150.37 3119.41 L 4150.58 3120.44 L 4150.99 3121.05 L 4151.6 3121.25 L 4152.01 3121.25 L 4152.62 3121.05 L 4153.03 3120.44 L 4153.24 3119.41 L 4153.24 3118.8 L 4153.03 3117.78 L 4152.62 3117.16 L 4152.01 3116.96 L 4151.6 3116.96 M 4154.59 3118.39 L 4154.59 3120.44 L 4154.79 3121.05 L 4155.2 3121.25 L 4155.81 3121.25 L 4156.22 3121.05 L 4156.84 3120.44 M 4156.84 3118.39 L 4156.84 3121.25 M 4158.19 3116.96 L 4158.19 3121.25 M 4158.19 3116.96 L 4160.85 3116.96 M 4158.19 3119 L 4159.82 3119" fill="none"  stroke-width="0.6" c_note="note_name" /></g><g c_partid="part_pcbtext" c_etype="" c_origin="4148,3128.5" c_rotation="0" c_mirror="0" id="gge303" locked="0" layerid="3" c_shapetype="group" ><path c_fontsize="4.5" c_fontfamily="" c_text="C3" d="M 4151.07 3124.98 L 4150.86 3124.57 L 4150.45 3124.16 L 4150.05 3123.96 L 4149.23 3123.96 L 4148.82 3124.16 L 4148.41 3124.57 L 4148.2 3124.98 L 4148 3125.6 L 4148 3126.62 L 4148.2 3127.23 L 4148.41 3127.64 L 4148.82 3128.05 L 4149.23 3128.25 L 4150.05 3128.25 L 4150.45 3128.05 L 4150.86 3127.64 L 4151.07 3127.23 M 4152.83 3123.96 L 4155.08 3123.96 L 4153.85 3125.6 L 4154.46 3125.6 L 4154.87 3125.8 L 4155.08 3126 L 4155.28 3126.62 L 4155.28 3127.03 L 4155.08 3127.64 L 4154.67 3128.05 L 4154.05 3128.25 L 4153.44 3128.25 L 4152.83 3128.05 L 4152.62 3127.85 L 4152.42 3127.44" fill="none"  stroke-width="0.6" c_note="note_pre" /></g><g c_partid="part_pcbtext" c_etype="pinpart" c_origin="4142.5,3133.5" c_rotation="0" c_mirror="0" id="gge387" locked="0" layerid="3" c_shapetype="group" ><path c_fontsize="3.937" c_fontfamily="" c_text="10uF" d="M 4142.5 3130.24 L 4142.86 3130.06 L 4143.39 3129.53 L 4143.39 3133.29 M 4145.65 3129.53 L 4145.11 3129.71 L 4144.75 3130.24 L 4144.58 3131.14 L 4144.58 3131.67 L 4144.75 3132.57 L 4145.11 3133.11 L 4145.65 3133.29 L 4146.01 3133.29 L 4146.54 3133.11 L 4146.9 3132.57 L 4147.08 3131.67 L 4147.08 3131.14 L 4146.9 3130.24 L 4146.54 3129.71 L 4146.01 3129.53 L 4145.65 3129.53 M 4148.26 3130.78 L 4148.26 3132.57 L 4148.44 3133.11 L 4148.8 3133.29 L 4149.34 3133.29 L 4149.69 3133.11 L 4150.23 3132.57 M 4150.23 3130.78 L 4150.23 3133.29 M 4151.41 3129.53 L 4151.41 3133.29 M 4151.41 3129.53 L 4153.74 3129.53 M 4151.41 3131.32 L 4152.84 3131.32" fill="none"  stroke-width="1"  /></g><g c_partid="part_pcbtext" c_etype="" c_origin="4124.5,3134" c_rotation="0" c_mirror="0" id="gge399" locked="0" layerid="3" c_shapetype="group" display="none"><path c_fontsize="4.5" c_fontfamily="" c_text="10uF" d="M 4124.5 3130.28 L 4124.91 3130.07 L 4125.52 3129.46 L 4125.52 3133.75 M 4128.1 3129.46 L 4127.49 3129.66 L 4127.08 3130.28 L 4126.87 3131.3 L 4126.87 3131.91 L 4127.08 3132.94 L 4127.49 3133.55 L 4128.1 3133.75 L 4128.51 3133.75 L 4129.12 3133.55 L 4129.53 3132.94 L 4129.74 3131.91 L 4129.74 3131.3 L 4129.53 3130.28 L 4129.12 3129.66 L 4128.51 3129.46 L 4128.1 3129.46 M 4131.09 3130.89 L 4131.09 3132.94 L 4131.29 3133.55 L 4131.7 3133.75 L 4132.31 3133.75 L 4132.72 3133.55 L 4133.34 3132.94 M 4133.34 3130.89 L 4133.34 3133.75 M 4134.69 3129.46 L 4134.69 3133.75 M 4134.69 3129.46 L 4137.35 3129.46 M 4134.69 3131.5 L 4136.32 3131.5" fill="none"  stroke-width="0.6" c_note="note_name" /></g><g c_partid="part_pcbtext" c_etype="" c_origin="4124.5,3141" c_rotation="0" c_mirror="0" id="gge405" locked="0" layerid="3" c_shapetype="group" ><path c_fontsize="4.5" c_fontfamily="" c_text="C4" d="M 4127.57 3137.48 L 4127.36 3137.07 L 4126.95 3136.66 L 4126.55 3136.46 L 4125.73 3136.46 L 4125.32 3136.66 L 4124.91 3137.07 L 4124.7 3137.48 L 4124.5 3138.1 L 4124.5 3139.12 L 4124.7 3139.73 L 4124.91 3140.14 L 4125.32 3140.55 L 4125.73 3140.75 L 4126.55 3140.75 L 4126.95 3140.55 L 4127.36 3140.14 L 4127.57 3139.73 M 4130.96 3136.46 L 4128.92 3139.32 L 4131.99 3139.32 M 4130.96 3136.46 L 4130.96 3140.75" fill="none"  stroke-width="0.6" c_note="note_pre" /></g><g c_partid="part_pcbtext" c_etype="pinpart" c_origin="4119,3146" c_rotation="0" c_mirror="0" id="gge489" locked="0" layerid="3" c_shapetype="group" ><path c_fontsize="3.937" c_fontfamily="" c_text="10uF" d="M 4119 3142.74 L 4119.36 3142.56 L 4119.89 3142.03 L 4119.89 3145.79 M 4122.15 3142.03 L 4121.61 3142.21 L 4121.25 3142.74 L 4121.08 3143.64 L 4121.08 3144.17 L 4121.25 3145.07 L 4121.61 3145.61 L 4122.15 3145.79 L 4122.51 3145.79 L 4123.04 3145.61 L 4123.4 3145.07 L 4123.58 3144.17 L 4123.58 3143.64 L 4123.4 3142.74 L 4123.04 3142.21 L 4122.51 3142.03 L 4122.15 3142.03 M 4124.76 3143.28 L 4124.76 3145.07 L 4124.94 3145.61 L 4125.3 3145.79 L 4125.84 3145.79 L 4126.19 3145.61 L 4126.73 3145.07 M 4126.73 3143.28 L 4126.73 3145.79 M 4127.91 3142.03 L 4127.91 3145.79 M 4127.91 3142.03 L 4130.24 3142.03 M 4127.91 3143.82 L 4129.34 3143.82" fill="none"  stroke-width="1"  /></g><g c_partid="part_pcbtext" c_etype="" c_origin="4095.566,3099.96" c_rotation="0" c_mirror="0" id="gge1296" locked="0" layerid="3" c_shapetype="group" display="none"><path c_fontsize="4.5" c_fontfamily="NotoSerifCJKsc-Medium" c_text="2kΩ" d="M 4096.0664 3099.62 C 4096.2664 3099.41 4096.4664 3099.21 4096.5764 3099.09 C 4097.2364 3098.4 4097.4564 3098.12 4097.4564 3097.74 C 4097.4564 3097.29 4097.2064 3096.97 4096.6464 3096.97 C 4096.2064 3096.97 4095.8264 3097.19 4095.7664 3097.63 C 4095.8064 3097.71 4095.8864 3097.76 4095.9764 3097.76 C 4096.0864 3097.76 4096.1664 3097.69 4096.2164 3097.49 L 4096.3064 3097.17 C 4096.3964 3097.15 4096.4764 3097.14 4096.5364 3097.14 C 4096.8664 3097.14 4097.0764 3097.39 4097.0764 3097.76 C 4097.0764 3098.12 4096.8764 3098.45 4096.4464 3098.94 C 4096.2564 3099.16 4096.0264 3099.42 4095.7864 3099.69 L 4095.7864 3099.96 L 4097.5864 3099.96 L 4097.5864 3099.62 Z  M 4099.8864 3099.78 L 4099.1464 3098.59 L 4099.6464 3098.08 L 4100.0564 3098.03 L 4100.0564 3097.88 L 4099.0464 3097.88 L 4099.0464 3098.03 L 4099.3864 3098.1 L 4098.5964 3098.92 L 4098.5964 3097.38 L 4098.6164 3096.75 L 4098.5564 3096.72 L 4097.8864 3096.9 L 4097.8864 3097.04 L 4098.2364 3097.07 L 4098.2364 3099.04 C 4098.2364 3099.28 4098.2364 3099.54 4098.2264 3099.78 L 4097.8864 3099.82 L 4097.8864 3099.96 L 4098.9464 3099.96 L 4098.9464 3099.82 L 4098.6064 3099.78 C 4098.6064 3099.57 4098.5964 3099.35 4098.5964 3099.14 L 4098.8864 3098.84 L 4099.5664 3099.96 L 4100.1664 3099.96 L 4100.1664 3099.82 Z  M 4102.9664 3099.22 L 4102.8664 3099.65 L 4102.2464 3099.65 L 4102.2464 3099.65 C 4102.6964 3099.33 4103.0464 3098.86 4103.0464 3098.29 C 4103.0464 3097.43 4102.4464 3096.96 4101.7664 3096.96 C 4101.0864 3096.96 4100.4864 3097.43 4100.4864 3098.29 C 4100.4864 3098.86 4100.8464 3099.33 4101.2964 3099.65 L 4101.2964 3099.65 L 4100.6764 3099.65 L 4100.5664 3099.22 L 4100.3464 3099.22 L 4100.3864 3099.96 L 4101.5564 3099.96 L 4101.5564 3099.69 C 4101.1464 3099.36 4100.8964 3098.84 4100.8964 3098.29 C 4100.8964 3097.64 4101.2164 3097.15 4101.7664 3097.15 C 4102.3164 3097.15 4102.6464 3097.64 4102.6464 3098.29 C 4102.6464 3098.84 4102.3864 3099.36 4101.9764 3099.69 L 4101.9764 3099.96 L 4103.1564 3099.96 L 4103.1964 3099.22 Z "  stroke="none" stroke-width="0.6" c_note="note_name" /></g><g c_partid="part_pcbtext" c_etype="" c_origin="4096.5,3112.5" c_rotation="0" c_mirror="0" id="gge498" locked="0" layerid="3" c_shapetype="group" ><path c_fontsize="4.5" c_fontfamily="" c_text="R1" d="M 4096.5 3107.96 L 4096.5 3112.25 M 4096.5 3107.96 L 4098.34 3107.96 L 4098.95 3108.16 L 4099.16 3108.37 L 4099.36 3108.78 L 4099.36 3109.19 L 4099.16 3109.6 L 4098.95 3109.8 L 4098.34 3110 L 4096.5 3110 M 4097.93 3110 L 4099.36 3112.25 M 4100.71 3108.78 L 4101.12 3108.57 L 4101.74 3107.96 L 4101.74 3112.25" fill="none"  stroke-width="0.6" c_note="note_pre" /></g><g c_partid="part_pcbtext" c_etype="" c_origin="4092.066,3140.46" c_rotation="0" c_mirror="0" id="gge1299" locked="0" layerid="3" c_shapetype="group" display="none"><path c_fontsize="4.5" c_fontfamily="NotoSerifCJKsc-Medium" c_text="10kΩ" d="M 4093.3964 3140.24 C 4093.3864 3140 4093.3864 3139.77 4093.3864 3139.54 L 4093.3864 3138.16 L 4093.4064 3137.53 L 4093.3464 3137.48 L 4092.4464 3137.72 L 4092.4464 3137.87 L 4093.0264 3137.82 L 4093.0264 3139.54 C 4093.0264 3139.77 4093.0264 3140 4093.0164 3140.24 L 4092.3964 3140.32 L 4092.3964 3140.46 L 4094.0064 3140.46 L 4094.0064 3140.32 Z  M 4094.8264 3138.97 C 4094.8264 3137.92 4095.0864 3137.64 4095.3664 3137.64 C 4095.6364 3137.64 4095.8864 3137.92 4095.8864 3138.97 C 4095.8864 3140.06 4095.6364 3140.35 4095.3664 3140.35 C 4095.0864 3140.35 4094.8264 3140.06 4094.8264 3138.97 Z  M 4095.3664 3137.47 C 4094.8964 3137.47 4094.4464 3137.88 4094.4464 3138.97 C 4094.4464 3140.1 4094.8964 3140.52 4095.3664 3140.52 C 4095.8264 3140.52 4096.2764 3140.1 4096.2764 3138.97 C 4096.2764 3137.88 4095.8264 3137.47 4095.3664 3137.47 Z  M 4098.5764 3140.28 L 4097.8364 3139.09 L 4098.3464 3138.58 L 4098.7464 3138.53 L 4098.7464 3138.38 L 4097.7464 3138.38 L 4097.7464 3138.53 L 4098.0864 3138.6 L 4097.2964 3139.42 L 4097.2964 3137.88 L 4097.3164 3137.25 L 4097.2564 3137.22 L 4096.5764 3137.4 L 4096.5764 3137.54 L 4096.9364 3137.57 L 4096.9364 3139.54 C 4096.9364 3139.78 4096.9264 3140.04 4096.9264 3140.28 L 4096.5864 3140.32 L 4096.5864 3140.46 L 4097.6464 3140.46 L 4097.6464 3140.32 L 4097.3064 3140.28 C 4097.2964 3140.07 4097.2964 3139.85 4097.2964 3139.64 L 4097.5864 3139.34 L 4098.2664 3140.46 L 4098.8664 3140.46 L 4098.8664 3140.32 Z  M 4101.6664 3139.72 L 4101.5564 3140.15 L 4100.9364 3140.15 L 4100.9364 3140.15 C 4101.3864 3139.83 4101.7464 3139.36 4101.7464 3138.79 C 4101.7464 3137.93 4101.1464 3137.46 4100.4664 3137.46 C 4099.7864 3137.46 4099.1864 3137.93 4099.1864 3138.79 C 4099.1864 3139.36 4099.5464 3139.83 4099.9964 3140.15 L 4099.9964 3140.15 L 4099.3664 3140.15 L 4099.2664 3139.72 L 4099.0364 3139.72 L 4099.0864 3140.46 L 4100.2564 3140.46 L 4100.2564 3140.19 C 4099.8464 3139.86 4099.5864 3139.34 4099.5864 3138.79 C 4099.5864 3138.14 4099.9164 3137.65 4100.4664 3137.65 C 4101.0164 3137.65 4101.3364 3138.14 4101.3364 3138.79 C 4101.3364 3139.34 4101.0864 3139.86 4100.6664 3140.19 L 4100.6664 3140.46 L 4101.8464 3140.46 L 4101.8864 3139.72 Z "  stroke="none" stroke-width="0.6" c_note="note_name" /></g><g c_partid="part_pcbtext" c_etype="" c_origin="4092,3153" c_rotation="0" c_mirror="0" id="gge561" locked="0" layerid="3" c_shapetype="group" ><path c_fontsize="4.5" c_fontfamily="" c_text="R2" d="M 4092 3148.46 L 4092 3152.75 M 4092 3148.46 L 4093.84 3148.46 L 4094.45 3148.66 L 4094.66 3148.87 L 4094.86 3149.28 L 4094.86 3149.69 L 4094.66 3150.1 L 4094.45 3150.3 L 4093.84 3150.5 L 4092 3150.5 M 4093.43 3150.5 L 4094.86 3152.75 M 4096.42 3149.48 L 4096.42 3149.28 L 4096.62 3148.87 L 4096.83 3148.66 L 4097.24 3148.46 L 4098.05 3148.46 L 4098.46 3148.66 L 4098.67 3148.87 L 4098.87 3149.28 L 4098.87 3149.69 L 4098.67 3150.1 L 4098.26 3150.71 L 4096.21 3152.75 L 4099.08 3152.75" fill="none"  stroke-width="0.6" c_note="note_pre" /></g><g c_partid="part_pcbtext" c_etype="" c_origin="4080.413,3040.668" c_rotation="0" c_mirror="0" id="gge627" locked="0" layerid="3" c_shapetype="group" display="none"><path c_fontsize="4.5" c_fontfamily="" c_text="ESP-01S" d="M 4080.413 3036.1275 L 4080.413 3040.4175 M 4080.413 3036.1275 L 4083.073 3036.1275 M 4080.413 3038.1675 L 4082.053 3038.1675 M 4080.413 3040.4175 L 4083.073 3040.4175 M 4087.283 3036.7375 L 4086.873 3036.3275 L 4086.263 3036.1275 L 4085.443 3036.1275 L 4084.833 3036.3275 L 4084.423 3036.7375 L 4084.423 3037.1475 L 4084.623 3037.5575 L 4084.833 3037.7675 L 4085.243 3037.9675 L 4086.463 3038.3775 L 4086.873 3038.5775 L 4087.083 3038.7875 L 4087.283 3039.1975 L 4087.283 3039.8075 L 4086.873 3040.2175 L 4086.263 3040.4175 L 4085.443 3040.4175 L 4084.833 3040.2175 L 4084.423 3039.8075 M 4088.633 3036.1275 L 4088.633 3040.4175 M 4088.633 3036.1275 L 4090.473 3036.1275 L 4091.093 3036.3275 L 4091.293 3036.5375 L 4091.503 3036.9475 L 4091.503 3037.5575 L 4091.293 3037.9675 L 4091.093 3038.1675 L 4090.473 3038.3775 L 4088.633 3038.3775 M 4092.853 3038.5775 L 4096.533 3038.5775 M 4099.113 3036.1275 L 4098.493 3036.3275 L 4098.083 3036.9475 L 4097.883 3037.9675 L 4097.883 3038.5775 L 4098.083 3039.6075 L 4098.493 3040.2175 L 4099.113 3040.4175 L 4099.513 3040.4175 L 4100.133 3040.2175 L 4100.543 3039.6075 L 4100.743 3038.5775 L 4100.743 3037.9675 L 4100.543 3036.9475 L 4100.133 3036.3275 L 4099.513 3036.1275 L 4099.113 3036.1275 M 4102.093 3036.9475 L 4102.503 3036.7375 L 4103.113 3036.1275 L 4103.113 3040.4175 M 4107.333 3036.7375 L 4106.923 3036.3275 L 4106.313 3036.1275 L 4105.493 3036.1275 L 4104.873 3036.3275 L 4104.463 3036.7375 L 4104.463 3037.1475 L 4104.673 3037.5575 L 4104.873 3037.7675 L 4105.283 3037.9675 L 4106.513 3038.3775 L 4106.923 3038.5775 L 4107.123 3038.7875 L 4107.333 3039.1975 L 4107.333 3039.8075 L 4106.923 3040.2175 L 4106.313 3040.4175 L 4105.493 3040.4175 L 4104.873 3040.2175 L 4104.463 3039.8075" fill="none"  stroke-width="0.6" c_note="note_name" /></g><g c_partid="part_pcbtext" c_etype="" c_origin="4080.413,3047.668" c_rotation="0" c_mirror="0" id="gge633" locked="0" layerid="3" c_shapetype="group" ><path c_fontsize="4.5" c_fontfamily="" c_text="U1" d="M 4080.413 3043.1275 L 4080.413 3046.1975 L 4080.613 3046.8075 L 4081.023 3047.2175 L 4081.643 3047.4175 L 4082.053 3047.4175 L 4082.663 3047.2175 L 4083.073 3046.8075 L 4083.273 3046.1975 L 4083.273 3043.1275 M 4084.623 3043.9475 L 4085.033 3043.7375 L 4085.653 3043.1275 L 4085.653 3047.4175" fill="none"  stroke-width="0.6" c_note="note_pre" /></g><g c_partid="part_pcbtext" c_etype="" c_origin="4065.413,3107.668" c_rotation="0" c_mirror="0" id="gge690" locked="0" layerid="3" c_shapetype="group" ><path c_fontsize="5" c_fontfamily="" c_text="ESP-01S" d="M 4065.413 3104.9375 L 4065.413 3109.7175 M 4065.413 3104.9375 L 4068.363 3104.9375 M 4065.413 3107.2175 L 4067.233 3107.2175 M 4065.413 3109.7175 L 4068.363 3109.7175 M 4073.053 3105.6175 L 4072.593 3105.1675 L 4071.913 3104.9375 L 4071.003 3104.9375 L 4070.323 3105.1675 L 4069.863 3105.6175 L 4069.863 3106.0775 L 4070.093 3106.5275 L 4070.323 3106.7575 L 4070.773 3106.9875 L 4072.143 3107.4375 L 4072.593 3107.6675 L 4072.823 3107.8975 L 4073.053 3108.3475 L 4073.053 3109.0275 L 4072.593 3109.4875 L 4071.913 3109.7175 L 4071.003 3109.7175 L 4070.323 3109.4875 L 4069.863 3109.0275 M 4074.553 3104.9375 L 4074.553 3109.7175 M 4074.553 3104.9375 L 4076.593 3104.9375 L 4077.273 3105.1675 L 4077.503 3105.3975 L 4077.733 3105.8475 L 4077.733 3106.5275 L 4077.503 3106.9875 L 4077.273 3107.2175 L 4076.593 3107.4375 L 4074.553 3107.4375 M 4079.233 3107.6675 L 4083.323 3107.6675 M 4086.183 3104.9375 L 4085.503 3105.1675 L 4085.053 3105.8475 L 4084.823 3106.9875 L 4084.823 3107.6675 L 4085.053 3108.8075 L 4085.503 3109.4875 L 4086.183 3109.7175 L 4086.643 3109.7175 L 4087.323 3109.4875 L 4087.773 3108.8075 L 4088.003 3107.6675 L 4088.003 3106.9875 L 4087.773 3105.8475 L 4087.323 3105.1675 L 4086.643 3104.9375 L 4086.183 3104.9375 M 4089.503 3105.8475 L 4089.963 3105.6175 L 4090.643 3104.9375 L 4090.643 3109.7175 M 4095.323 3105.6175 L 4094.863 3105.1675 L 4094.183 3104.9375 L 4093.273 3104.9375 L 4092.593 3105.1675 L 4092.143 3105.6175 L 4092.143 3106.0775 L 4092.363 3106.5275 L 4092.593 3106.7575 L 4093.053 3106.9875 L 4094.413 3107.4375 L 4094.863 3107.6675 L 4095.093 3107.8975 L 4095.323 3108.3475 L 4095.323 3109.0275 L 4094.863 3109.4875 L 4094.183 3109.7175 L 4093.273 3109.7175 L 4092.593 3109.4875 L 4092.143 3109.0275" fill="none"  stroke-width="0.8"  /></g><g c_partid="part_pcbtext" c_etype="" c_origin="4111.748,3073.249" c_rotation="0" c_mirror="0" id="gge822" locked="0" layerid="3" c_shapetype="group" display="none"><path c_fontsize="4.5" c_fontfamily="" c_text="MCP73831T-2ATI/OT" d="M 4111.7485 3068.709 L 4111.7485 3072.999 M 4111.7485 3068.709 L 4113.3885 3072.999 M 4115.0185 3068.709 L 4113.3885 3072.999 M 4115.0185 3068.709 L 4115.0185 3072.999 M 4119.4385 3069.729 L 4119.2385 3069.319 L 4118.8285 3068.909 L 4118.4185 3068.709 L 4117.5985 3068.709 L 4117.1885 3068.909 L 4116.7785 3069.319 L 4116.5785 3069.729 L 4116.3685 3070.349 L 4116.3685 3071.369 L 4116.5785 3071.979 L 4116.7785 3072.389 L 4117.1885 3072.799 L 4117.5985 3072.999 L 4118.4185 3072.999 L 4118.8285 3072.799 L 4119.2385 3072.389 L 4119.4385 3071.979 M 4120.7885 3068.709 L 4120.7885 3072.999 M 4120.7885 3068.709 L 4122.6285 3068.709 L 4123.2485 3068.909 L 4123.4485 3069.119 L 4123.6485 3069.529 L 4123.6485 3070.139 L 4123.4485 3070.549 L 4123.2485 3070.749 L 4122.6285 3070.959 L 4120.7885 3070.959 M 4127.8685 3068.709 L 4125.8185 3072.999 M 4124.9985 3068.709 L 4127.8685 3068.709 M 4129.6285 3068.709 L 4131.8785 3068.709 L 4130.6485 3070.349 L 4131.2585 3070.349 L 4131.6685 3070.549 L 4131.8785 3070.749 L 4132.0785 3071.369 L 4132.0785 3071.779 L 4131.8785 3072.389 L 4131.4685 3072.799 L 4130.8485 3072.999 L 4130.2385 3072.999 L 4129.6285 3072.799 L 4129.4185 3072.599 L 4129.2185 3072.189 M 4134.4485 3068.709 L 4133.8385 3068.909 L 4133.6385 3069.319 L 4133.6385 3069.729 L 4133.8385 3070.139 L 4134.2485 3070.349 L 4135.0685 3070.549 L 4135.6785 3070.749 L 4136.0885 3071.159 L 4136.2985 3071.569 L 4136.2985 3072.189 L 4136.0885 3072.599 L 4135.8885 3072.799 L 4135.2685 3072.999 L 4134.4485 3072.999 L 4133.8385 3072.799 L 4133.6385 3072.599 L 4133.4285 3072.189 L 4133.4285 3071.569 L 4133.6385 3071.159 L 4134.0485 3070.749 L 4134.6585 3070.549 L 4135.4785 3070.349 L 4135.8885 3070.139 L 4136.0885 3069.729 L 4136.0885 3069.319 L 4135.8885 3068.909 L 4135.2685 3068.709 L 4134.4485 3068.709 M 4138.0485 3068.709 L 4140.2985 3068.709 L 4139.0785 3070.349 L 4139.6885 3070.349 L 4140.0985 3070.549 L 4140.2985 3070.749 L 4140.5085 3071.369 L 4140.5085 3071.779 L 4140.2985 3072.389 L 4139.8985 3072.799 L 4139.2785 3072.999 L 4138.6685 3072.999 L 4138.0485 3072.799 L 4137.8485 3072.599 L 4137.6485 3072.189 M 4141.8585 3069.529 L 4142.2685 3069.319 L 4142.8785 3068.709 L 4142.8785 3072.999 M 4145.6585 3068.709 L 4145.6585 3072.999 M 4144.2285 3068.709 L 4147.0985 3068.709 M 4148.4485 3071.159 L 4152.1285 3071.159 M 4153.6785 3069.729 L 4153.6785 3069.529 L 4153.8885 3069.119 L 4154.0885 3068.909 L 4154.4985 3068.709 L 4155.3185 3068.709 L 4155.7285 3068.909 L 4155.9285 3069.119 L 4156.1385 3069.529 L 4156.1385 3069.939 L 4155.9285 3070.349 L 4155.5185 3070.959 L 4153.4785 3072.999 L 4156.3385 3072.999 M 4159.3285 3068.709 L 4157.6885 3072.999 M 4159.3285 3068.709 L 4160.9585 3072.999 M 4158.2985 3071.569 L 4160.3485 3071.569 M 4163.7485 3068.709 L 4163.7485 3072.999 M 4162.3085 3068.709 L 4165.1785 3068.709 M 4166.5285 3068.709 L 4166.5285 3072.999 M 4171.5585 3067.889 L 4167.8785 3074.439 M 4174.1385 3068.709 L 4173.7285 3068.909 L 4173.3185 3069.319 L 4173.1085 3069.729 L 4172.9085 3070.349 L 4172.9085 3071.369 L 4173.1085 3071.979 L 4173.3185 3072.389 L 4173.7285 3072.799 L 4174.1385 3072.999 L 4174.9485 3072.999 L 4175.3585 3072.799 L 4175.7685 3072.389 L 4175.9785 3071.979 L 4176.1785 3071.369 L 4176.1785 3070.349 L 4175.9785 3069.729 L 4175.7685 3069.319 L 4175.3585 3068.909 L 4174.9485 3068.709 L 4174.1385 3068.709 M 4178.9585 3068.709 L 4178.9585 3072.999 M 4177.5285 3068.709 L 4180.3985 3068.709" fill="none"  stroke-width="0.6" c_note="note_name" /></g><g c_partid="part_pcbtext" c_etype="" c_origin="4111.748,3080.249" c_rotation="0" c_mirror="0" id="gge828" locked="0" layerid="3" c_shapetype="group" ><path c_fontsize="4.5" c_fontfamily="" c_text="U2" d="M 4111.7485 3075.709 L 4111.7485 3078.779 L 4111.9485 3079.389 L 4112.3585 3079.799 L 4112.9785 3079.999 L 4113.3885 3079.999 L 4113.9985 3079.799 L 4114.4085 3079.389 L 4114.6085 3078.779 L 4114.6085 3075.709 M 4116.1685 3076.729 L 4116.1685 3076.529 L 4116.3685 3076.119 L 4116.5785 3075.909 L 4116.9885 3075.709 L 4117.7985 3075.709 L 4118.2085 3075.909 L 4118.4185 3076.119 L 4118.6185 3076.529 L 4118.6185 3076.939 L 4118.4185 3077.349 L 4118.0085 3077.959 L 4115.9585 3079.999 L 4118.8285 3079.999" fill="none"  stroke-width="0.6" c_note="note_pre" /></g><g c_partid="part_pcbtext" c_etype="" c_origin="4136.82,3040.668" c_rotation="0" c_mirror="0" id="gge990" locked="0" layerid="3" c_shapetype="group" display="none"><path c_fontsize="4.5" c_fontfamily="" c_text="SS-12D00-G3" d="M 4139.68 3036.7375 L 4139.27 3036.3275 L 4138.66 3036.1275 L 4137.84 3036.1275 L 4137.23 3036.3275 L 4136.82 3036.7375 L 4136.82 3037.1475 L 4137.02 3037.5575 L 4137.23 3037.7675 L 4137.64 3037.9675 L 4138.87 3038.3775 L 4139.27 3038.5775 L 4139.48 3038.7875 L 4139.68 3039.1975 L 4139.68 3039.8075 L 4139.27 3040.2175 L 4138.66 3040.4175 L 4137.84 3040.4175 L 4137.23 3040.2175 L 4136.82 3039.8075 M 4143.9 3036.7375 L 4143.49 3036.3275 L 4142.87 3036.1275 L 4142.06 3036.1275 L 4141.44 3036.3275 L 4141.03 3036.7375 L 4141.03 3037.1475 L 4141.24 3037.5575 L 4141.44 3037.7675 L 4141.85 3037.9675 L 4143.08 3038.3775 L 4143.49 3038.5775 L 4143.69 3038.7875 L 4143.9 3039.1975 L 4143.9 3039.8075 L 4143.49 3040.2175 L 4142.87 3040.4175 L 4142.06 3040.4175 L 4141.44 3040.2175 L 4141.03 3039.8075 M 4145.25 3038.5775 L 4148.93 3038.5775 M 4150.28 3036.9475 L 4150.69 3036.7375 L 4151.3 3036.1275 L 4151.3 3040.4175 M 4152.86 3037.1475 L 4152.86 3036.9475 L 4153.06 3036.5375 L 4153.27 3036.3275 L 4153.67 3036.1275 L 4154.49 3036.1275 L 4154.9 3036.3275 L 4155.11 3036.5375 L 4155.31 3036.9475 L 4155.31 3037.3575 L 4155.11 3037.7675 L 4154.7 3038.3775 L 4152.65 3040.4175 L 4155.52 3040.4175 M 4156.87 3036.1275 L 4156.87 3040.4175 M 4156.87 3036.1275 L 4158.3 3036.1275 L 4158.91 3036.3275 L 4159.32 3036.7375 L 4159.52 3037.1475 L 4159.73 3037.7675 L 4159.73 3038.7875 L 4159.52 3039.3975 L 4159.32 3039.8075 L 4158.91 3040.2175 L 4158.3 3040.4175 L 4156.87 3040.4175 M 4162.31 3036.1275 L 4161.69 3036.3275 L 4161.28 3036.9475 L 4161.08 3037.9675 L 4161.08 3038.5775 L 4161.28 3039.6075 L 4161.69 3040.2175 L 4162.31 3040.4175 L 4162.72 3040.4175 L 4163.33 3040.2175 L 4163.74 3039.6075 L 4163.94 3038.5775 L 4163.94 3037.9675 L 4163.74 3036.9475 L 4163.33 3036.3275 L 4162.72 3036.1275 L 4162.31 3036.1275 M 4166.52 3036.1275 L 4165.91 3036.3275 L 4165.5 3036.9475 L 4165.29 3037.9675 L 4165.29 3038.5775 L 4165.5 3039.6075 L 4165.91 3040.2175 L 4166.52 3040.4175 L 4166.93 3040.4175 L 4167.54 3040.2175 L 4167.95 3039.6075 L 4168.16 3038.5775 L 4168.16 3037.9675 L 4167.95 3036.9475 L 4167.54 3036.3275 L 4166.93 3036.1275 L 4166.52 3036.1275 M 4169.51 3038.5775 L 4173.19 3038.5775 M 4177.61 3037.1475 L 4177.4 3036.7375 L 4176.99 3036.3275 L 4176.58 3036.1275 L 4175.77 3036.1275 L 4175.36 3036.3275 L 4174.95 3036.7375 L 4174.74 3037.1475 L 4174.54 3037.7675 L 4174.54 3038.7875 L 4174.74 3039.3975 L 4174.95 3039.8075 L 4175.36 3040.2175 L 4175.77 3040.4175 L 4176.58 3040.4175 L 4176.99 3040.2175 L 4177.4 3039.8075 L 4177.61 3039.3975 L 4177.61 3038.7875 M 4176.58 3038.7875 L 4177.61 3038.7875 M 4179.37 3036.1275 L 4181.62 3036.1275 L 4180.39 3037.7675 L 4181 3037.7675 L 4181.41 3037.9675 L 4181.62 3038.1675 L 4181.82 3038.7875 L 4181.82 3039.1975 L 4181.62 3039.8075 L 4181.21 3040.2175 L 4180.59 3040.4175 L 4179.98 3040.4175 L 4179.37 3040.2175 L 4179.16 3040.0175 L 4178.96 3039.6075" fill="none"  stroke-width="0.6" c_note="note_name" /></g><g c_partid="part_pcbtext" c_etype="" c_origin="4136.82,3047.668" c_rotation="0" c_mirror="0" id="gge996" locked="0" layerid="3" c_shapetype="group" ><path c_fontsize="4.5" c_fontfamily="" c_text="U3" d="M 4136.82 3043.1275 L 4136.82 3046.1975 L 4137.02 3046.8075 L 4137.43 3047.2175 L 4138.05 3047.4175 L 4138.46 3047.4175 L 4139.07 3047.2175 L 4139.48 3046.8075 L 4139.68 3046.1975 L 4139.68 3043.1275 M 4141.44 3043.1275 L 4143.69 3043.1275 L 4142.47 3044.7675 L 4143.08 3044.7675 L 4143.49 3044.9675 L 4143.69 3045.1675 L 4143.9 3045.7875 L 4143.9 3046.1975 L 4143.69 3046.8075 L 4143.28 3047.2175 L 4142.67 3047.4175 L 4142.06 3047.4175 L 4141.44 3047.2175 L 4141.24 3047.0175 L 4141.03 3046.6075" fill="none"  stroke-width="0.6" c_note="note_pre" /></g><g c_partid="part_pcbtext" c_etype="" c_origin="4121.778,3110.668" c_rotation="0" c_mirror="0" id="gge1089" locked="0" layerid="3" c_shapetype="group" display="none"><path c_fontsize="4.5" c_fontfamily="" c_text="AP2112K-3.3TRG1(MS)" d="M 4123.4175 3106.1275 L 4121.7775 3110.4175 M 4123.4175 3106.1275 L 4125.0475 3110.4175 M 4122.3875 3108.9875 L 4124.4375 3108.9875 M 4126.3975 3106.1275 L 4126.3975 3110.4175 M 4126.3975 3106.1275 L 4128.2375 3106.1275 L 4128.8575 3106.3275 L 4129.0575 3106.5375 L 4129.2675 3106.9475 L 4129.2675 3107.5575 L 4129.0575 3107.9675 L 4128.8575 3108.1675 L 4128.2375 3108.3775 L 4126.3975 3108.3775 M 4130.8175 3107.1475 L 4130.8175 3106.9475 L 4131.0275 3106.5375 L 4131.2275 3106.3275 L 4131.6375 3106.1275 L 4132.4575 3106.1275 L 4132.8675 3106.3275 L 4133.0675 3106.5375 L 4133.2775 3106.9475 L 4133.2775 3107.3575 L 4133.0675 3107.7675 L 4132.6575 3108.3775 L 4130.6175 3110.4175 L 4133.4775 3110.4175 M 4134.8275 3106.9475 L 4135.2375 3106.7375 L 4135.8475 3106.1275 L 4135.8475 3110.4175 M 4137.1975 3106.9475 L 4137.6075 3106.7375 L 4138.2275 3106.1275 L 4138.2275 3110.4175 M 4139.7775 3107.1475 L 4139.7775 3106.9475 L 4139.9775 3106.5375 L 4140.1875 3106.3275 L 4140.5975 3106.1275 L 4141.4175 3106.1275 L 4141.8275 3106.3275 L 4142.0275 3106.5375 L 4142.2275 3106.9475 L 4142.2275 3107.3575 L 4142.0275 3107.7675 L 4141.6175 3108.3775 L 4139.5775 3110.4175 L 4142.4375 3110.4175 M 4143.7875 3106.1275 L 4143.7875 3110.4175 M 4146.6475 3106.1275 L 4143.7875 3108.9875 M 4144.8075 3107.9675 L 4146.6475 3110.4175 M 4147.9975 3108.5775 L 4151.6775 3108.5775 M 4153.4375 3106.1275 L 4155.6875 3106.1275 L 4154.4675 3107.7675 L 4155.0775 3107.7675 L 4155.4875 3107.9675 L 4155.6875 3108.1675 L 4155.8975 3108.7875 L 4155.8975 3109.1975 L 4155.6875 3109.8075 L 4155.2775 3110.2175 L 4154.6675 3110.4175 L 4154.0575 3110.4175 L 4153.4375 3110.2175 L 4153.2375 3110.0175 L 4153.0275 3109.6075 M 4157.4475 3109.3975 L 4157.2475 3109.6075 L 4157.4475 3109.8075 L 4157.6575 3109.6075 L 4157.4475 3109.3975 M 4159.4175 3106.1275 L 4161.6675 3106.1275 L 4160.4375 3107.7675 L 4161.0475 3107.7675 L 4161.4575 3107.9675 L 4161.6675 3108.1675 L 4161.8675 3108.7875 L 4161.8675 3109.1975 L 4161.6675 3109.8075 L 4161.2575 3110.2175 L 4160.6375 3110.4175 L 4160.0275 3110.4175 L 4159.4175 3110.2175 L 4159.2075 3110.0175 L 4159.0075 3109.6075 M 4164.6475 3106.1275 L 4164.6475 3110.4175 M 4163.2175 3106.1275 L 4166.0775 3106.1275 M 4167.4275 3106.1275 L 4167.4275 3110.4175 M 4167.4275 3106.1275 L 4169.2775 3106.1275 L 4169.8875 3106.3275 L 4170.0875 3106.5375 L 4170.2975 3106.9475 L 4170.2975 3107.3575 L 4170.0875 3107.7675 L 4169.8875 3107.9675 L 4169.2775 3108.1675 L 4167.4275 3108.1675 M 4168.8675 3108.1675 L 4170.2975 3110.4175 M 4174.7175 3107.1475 L 4174.5075 3106.7375 L 4174.0975 3106.3275 L 4173.6875 3106.1275 L 4172.8775 3106.1275 L 4172.4675 3106.3275 L 4172.0575 3106.7375 L 4171.8475 3107.1475 L 4171.6475 3107.7675 L 4171.6475 3108.7875 L 4171.8475 3109.3975 L 4172.0575 3109.8075 L 4172.4675 3110.2175 L 4172.8775 3110.4175 L 4173.6875 3110.4175 L 4174.0975 3110.2175 L 4174.5075 3109.8075 L 4174.7175 3109.3975 L 4174.7175 3108.7875 M 4173.6875 3108.7875 L 4174.7175 3108.7875 M 4176.0675 3106.9475 L 4176.4775 3106.7375 L 4177.0875 3106.1275 L 4177.0875 3110.4175 M 4179.8675 3105.3075 L 4179.4575 3105.7175 L 4179.0475 3106.3275 L 4178.6375 3107.1475 L 4178.4375 3108.1675 L 4178.4375 3108.9875 L 4178.6375 3110.0175 L 4179.0475 3110.8275 L 4179.4575 3111.4475 L 4179.8675 3111.8575 M 4181.2175 3106.1275 L 4181.2175 3110.4175 M 4181.2175 3106.1275 L 4182.8575 3110.4175 M 4184.4875 3106.1275 L 4182.8575 3110.4175 M 4184.4875 3106.1275 L 4184.4875 3110.4175 M 4188.7075 3106.7375 L 4188.2975 3106.3275 L 4187.6775 3106.1275 L 4186.8675 3106.1275 L 4186.2475 3106.3275 L 4185.8375 3106.7375 L 4185.8375 3107.1475 L 4186.0475 3107.5575 L 4186.2475 3107.7675 L 4186.6575 3107.9675 L 4187.8875 3108.3775 L 4188.2975 3108.5775 L 4188.4975 3108.7875 L 4188.7075 3109.1975 L 4188.7075 3109.8075 L 4188.2975 3110.2175 L 4187.6775 3110.4175 L 4186.8675 3110.4175 L 4186.2475 3110.2175 L 4185.8375 3109.8075 M 4190.0575 3105.3075 L 4190.4675 3105.7175 L 4190.8775 3106.3275 L 4191.2775 3107.1475 L 4191.4875 3108.1675 L 4191.4875 3108.9875 L 4191.2775 3110.0175 L 4190.8775 3110.8275 L 4190.4675 3111.4475 L 4190.0575 3111.8575" fill="none"  stroke-width="0.6" c_note="note_name" /></g><g c_partid="part_pcbtext" c_etype="" c_origin="4121.778,3117.668" c_rotation="0" c_mirror="0" id="gge1095" locked="0" layerid="3" c_shapetype="group" ><path c_fontsize="4.5" c_fontfamily="" c_text="U4" d="M 4121.7775 3113.1275 L 4121.7775 3116.1975 L 4121.9775 3116.8075 L 4122.3875 3117.2175 L 4123.0075 3117.4175 L 4123.4175 3117.4175 L 4124.0275 3117.2175 L 4124.4375 3116.8075 L 4124.6375 3116.1975 L 4124.6375 3113.1275 M 4128.0375 3113.1275 L 4125.9875 3115.9875 L 4129.0575 3115.9875 M 4128.0375 3113.1275 L 4128.0375 3117.4175" fill="none"  stroke-width="0.6" c_note="note_pre" /></g><path d="M 4075.6307 3161.5575 A 0.6 0.6 0 0 0 4076.2307 3160.9575" locked="0"  fill="none" stroke-width="1" c_helper_type="arc2" net="" layerid="3" id="gge141" /><path d="M 4076.2307 3155.0425 A 0.6 0.6 0 0 0 4075.6307 3154.4425" locked="0"  fill="none" stroke-width="1" c_helper_type="arc2" net="" layerid="3" id="gge144" /><path d="M 4061.3693 3161.5575 A 0.6 0.6 0 0 1 4060.7693 3160.9575" locked="0"  fill="none" stroke-width="1" c_helper_type="arc2" net="" layerid="3" id="gge147" /><path d="M 4060.7693 3155.0425 A 0.6 0.6 0 0 1 4061.3693 3154.4425" locked="0"  fill="none" stroke-width="1" c_helper_type="arc2" net="" layerid="3" id="gge150" /><path d="M 4155.6307 3115.5575 A 0.6 0.6 0 0 0 4156.2307 3114.9575" locked="0"  fill="none" stroke-width="1" c_helper_type="arc2" net="" layerid="3" id="gge243" /><path d="M 4141.3693 3115.5575 A 0.6 0.6 0 0 1 4140.7693 3114.9575" locked="0"  fill="none" stroke-width="1" c_helper_type="arc2" net="" layerid="3" id="gge246" /><path d="M 4140.7693 3109.0425 A 0.6 0.6 0 0 1 4141.3693 3108.4425" locked="0"  fill="none" stroke-width="1" c_helper_type="arc2" net="" layerid="3" id="gge249" /><path d="M 4156.2307 3109.0425 A 0.6 0.6 0 0 0 4155.6307 3108.4425" locked="0"  fill="none" stroke-width="1" c_helper_type="arc2" net="" layerid="3" id="gge252" /><path d="M 4155.1307 3143.0575 A 0.6 0.6 0 0 0 4155.7307 3142.4575" locked="0"  fill="none" stroke-width="1" c_helper_type="arc2" net="" layerid="3" id="gge345" /><path d="M 4140.8693 3143.0575 A 0.6 0.6 0 0 1 4140.2693 3142.4575" locked="0"  fill="none" stroke-width="1" c_helper_type="arc2" net="" layerid="3" id="gge348" /><path d="M 4140.2693 3136.5425 A 0.6 0.6 0 0 1 4140.8693 3135.9425" locked="0"  fill="none" stroke-width="1" c_helper_type="arc2" net="" layerid="3" id="gge351" /><path d="M 4155.7307 3136.5425 A 0.6 0.6 0 0 0 4155.1307 3135.9425" locked="0"  fill="none" stroke-width="1" c_helper_type="arc2" net="" layerid="3" id="gge354" /><path d="M 4131.6307 3155.5575 A 0.6 0.6 0 0 0 4132.2307 3154.9575" locked="0"  fill="none" stroke-width="1" c_helper_type="arc2" net="" layerid="3" id="gge447" /><path d="M 4117.3693 3155.5575 A 0.6 0.6 0 0 1 4116.7693 3154.9575" locked="0"  fill="none" stroke-width="1" c_helper_type="arc2" net="" layerid="3" id="gge450" /><path d="M 4116.7693 3149.0425 A 0.6 0.6 0 0 1 4117.3693 3148.4425" locked="0"  fill="none" stroke-width="1" c_helper_type="arc2" net="" layerid="3" id="gge453" /><path d="M 4132.2307 3149.0425 A 0.6 0.6 0 0 0 4131.6307 3148.4425" locked="0"  fill="none" stroke-width="1" c_helper_type="arc2" net="" layerid="3" id="gge456" /><circle cx="4128.5" cy="3132.001" r="0.5" stroke-width="1" fill="none" layerid="3" id="gge1146" locked="0"  /><path d="M 4112.8032 3092 A 0.6969 0.6969 0 1 1 4114.1969 3092 A 0.6969 0.6969 0 1 1 4112.8032 3092 Z " stroke-width="0"   net="" type="solid" layerid="3" id="gge900" locked="0" c_teardrop="" c_targetpad="" c_targetwire="" /><polyline points="4047.559 3047.65 4165.669 3047.65 4165.669 3165.76 4047.559 3165.76 4047.559 3047.65" stroke-width="1"  stroke-linecap="round" fill="none" layerid="10" net="" id="gge1302" locked="0" /></svg>